<?xml version="1.0" encoding="utf-8"?>
<!-- Generator: Adobe Illustrator 26.0.1, SVG Export Plug-In . SVG Version: 6.00 Build 0)  -->
<svg version="1.1" id="Layer_1" xmlns="http://www.w3.org/2000/svg" xmlns:xlink="http://www.w3.org/1999/xlink" x="0px" y="0px"
	 viewBox="0 0 648.4 367.3" style="enable-background:new 0 0 648.4 367.3;" xml:space="preserve">
<style type="text/css">
	.st0{fill:#86C440;}
	.st1{fill:#F27323;}
	.st2{fill:#FFFFFF;}
</style>
<path class="st0" d="M180.3,333.6c-7.9-8-17.2-17.4-27.5-27.8c13.6-13.3,27.6-26.9,41.6-40.5c2.6-2.6,5.3-5.1,7.8-7.8
	c15.5-16.3,13-9.1-0.3-25.9c-4-5-9.7-8.7-14.1-13.5c-4.8-5.2-8.4-4.7-13.3,0.2c-24.7,25-49.6,49.8-74.4,74.6
	c-23.6,23.6-47.3,47.3-71,70.9c-1,1-2.2,1.7-4.6,3.5c-8.3-8.6-16.7-17-24.4-25.9c-1.1-1.3,0.6-6.7,2.5-8.6
	c21.6-22,43.6-43.8,65.4-65.6c34.8-34.9,69.6-69.8,104.4-104.7c2.6-2.6,5.3-5,7.6-7.1c30.2,30.2,60.1,60.2,89.8,89.9
	C240.5,274.3,210.4,304,180.3,333.6z"/>
<path class="st1" d="M273.2,180.3c-18.1-18.3-36.4-36.8-54.7-55.3c-9.8-9.9-19.6-19.7-29.4-29.5c-7.7-7.7-7.7-7.6-15.6,0.4
	c-7.5,7.6-15.1,15.2-22.2,22.4c-9.9-9.9-19.2-19.2-28.5-28.4c19.6-19.2,39.5-38.7,60.1-58.9c0.7,0.6,2.8,2.3,4.7,4.2
	c26.7,26.6,53.5,53.1,79.8,80.1c5.8,5.9,9.2,5.9,14.9,0c17.7-18.3,36-36,54.1-53.9c9.4,9.7,18.7,19.3,27.5,28.5
	C334.8,118.9,304.6,149,273.2,180.3z"/>
<path class="st2" d="M392.9,259.7c-2.1,15.1-4.1,29.3-6.2,44.1c-7.4,0-14.3,0-21.9,0c3.1-19.6,6.1-38.9,9.1-58.1
	c1.1-6.7,2.3-13.4,3.1-20.2c0.6-4.8,2.6-7.2,7.7-6.6c2.8,0.3,5.7,0.3,8.5,0c5.4-0.6,7.4,2.1,8.3,7c2.4,13.1,5.2,26,9.5,39.1
	c0.4-3.9,0.7-7.9,1.2-11.8c0.7-6.2,1.2-12.4,2.1-18.6c2.5-17.5,4.9-18.9,23.9-14.3c-2.6,16.6-5.1,33.4-7.7,50.1
	c-1.4,9.2-3.3,18.4-4.4,27.7c-0.6,5.2-2.9,6.4-7.7,6.4c-15.2,0.2-15.2,0.3-18-14.5c-1.8-9.5-3.6-18.9-5.5-28.3
	C394.7,261.3,394.1,261,392.9,259.7z"/>
<path class="st2" d="M454.2,118.5c-1.6,10.9-2.9,20.3-4.3,29.8c7.5,2.3,12.5,2,12.7-7c0.1-3.4,0.9-6.7,1.5-10.1
	c2.1-12.9,2.1-12.9,14.9-12.9c3,0,6,0,9.9,0c-4.6,29.1-9,56.9-13.5,85.2c-7.5,0-14.5,0-22.4,0c1.6-11.3,3.2-22.1,4.8-33.8
	c-3.8,0-6.9,0-11.4,0c-1.8,10.9-3.7,22.2-5.7,33.8c-7.5,0-14.5,0-22.4,0c2.8-18.4,5.6-36.2,8.4-54c1.3-8.4,3-16.7,4-25.1
	c0.6-4.8,2.7-6.2,7.2-6C442.8,118.7,447.9,118.5,454.2,118.5z"/>
<path class="st2" d="M444.9,219.6c9.7,0,18.2-0.7,26.6,0.2c15.2,1.5,24.5,11.4,26.1,26.5c1.3,13-1.3,25.3-7.3,36.9
	c-5.7,10.9-14.6,18.3-26.8,20c-10.2,1.4-20.6,1.2-32,1.8C436.1,275.6,440.5,247.9,444.9,219.6z M457.5,284.3
	c11.8-3.7,17.6-14.8,17.2-30.3c-0.2-6.2-0.8-12.6-10.2-14C462.2,254.6,460,268.9,457.5,284.3z"/>
<path class="st2" d="M648.4,149.1c-0.7,15.4-3.5,29.1-12.4,40.3c-4.4,5.6-10.4,10.9-16.8,13.7c-17.7,7.7-33.3-1-36.9-20
	c-3.8-19.7,0.6-38.1,13.6-53.2c5.1-5.9,13.6-10.5,21.4-12.1c15.4-3.2,26.2,5.4,29.5,20.8C647.7,142.5,648.1,146.5,648.4,149.1z
	 M626.8,150.5c-2.5-3.9-5.2-8.1-7.8-12.2c-3.6,3.5-9,6.4-10.3,10.6c-2.6,8.5-3.5,17.6-4,26.6c-0.1,2.8,3.4,5.8,5.2,8.7
	c3.1-2,7.9-3.3,8.9-6.1C622.1,169.7,624,160.8,626.8,150.5z"/>
<path class="st2" d="M412.7,203.4c-23.5,2.5-23.5,2.5-28.1-18.7c-1.1-5.2-2.3-10.4-5.3-15.9c-1.3,7.7-2.7,15.4-4,23.2
	c-2.1,12.2-2.1,12.2-14.5,12.1c-3,0-6.1,0-10,0c3.3-21.3,6.4-41.4,9.6-61.4c0.3-2.2,0.8-4.5,1.1-6.7c2.8-19.4,3.8-20.1,25.1-16.5
	c-0.7,5.2-1.4,10.4-2.1,15.6c-0.8,5.3-1.6,10.5-0.7,16.5c4-7.9,8.4-15.6,11.8-23.7c3-7.2,7.2-10.9,15.3-9.5
	c3.8,0.6,7.8,0.1,13.4,0.1c-7,11.7-12.9,22.2-19.6,32.2c-4.1,6.2-5.2,11.8-2.5,18.9C406.2,180.4,409.2,191.6,412.7,203.4z"/>
<path class="st2" d="M591.6,304.1c-8.3,0-15.2,0-22.5,0c-0.5-3.4-1-6.4-1.5-9.8c-7.8-0.7-16.1-4.3-18.7,7.7c-0.2,1.1-3,2.3-4.7,2.4
	c-5.9,0.3-11.8,0.1-19,0.1c2.8-7,5.1-13,7.5-19c7.8-19.7,15.8-39.4,23.4-59.2c2-5.2,4.4-7.5,10.4-7.5c20.1,0,20.3-0.3,21.7,19.9
	C589.4,260.2,590.4,281.6,591.6,304.1z M568.7,245.9c-0.5-0.1-0.9-0.1-1.4-0.2c-3,9.6-6,19.1-9.1,29c7.4,2.3,11.1,1.1,10.6-6.9
	C568.4,260.6,568.7,253.2,568.7,245.9z"/>
<path class="st2" d="M514.5,150.4c5.2,0.3,10.4,0.7,16.2,1c-0.4,3.5-1,6.2-1,8.9c0,7.8-3.4,11.3-11.4,10.1c-10.6-1.7-9.2,6-9.8,13.3
	c6.2,0.3,12.2,0.6,19.3,0.9c-1.1,6.6-2.1,12.6-3.1,18.9c-14.3,0-28.1,0-42.5,0c3.8-24.1,7.4-47.5,11.2-71
	c2.3-14.2,2.4-14.1,16.5-14.1c9,0,18,0,28.2,0c-0.9,6-0.7,11.6-2.8,16.1c-1,2.2-6.3,3.2-9.8,3.4
	C513.9,138.4,513.8,138.2,514.5,150.4z"/>
<path class="st2" d="M567.3,118.5c-3.5,22.7-6.8,43.6-10.1,65.4c5.8,0.3,10.8,0.5,17,0.8c-0.8,5.7-1.3,10.9-2.5,16
	c-0.3,1.4-2.5,3.2-3.9,3.3c-11.8,0.3-23.7,0.1-36.5,0.1c2.7-17.5,5.2-33.9,7.8-50.4c1.4-9,3.3-17.9,4.2-26.9c0.6-6.3,3-9.2,9.6-8.4
	C557.2,118.9,561.7,118.5,567.3,118.5z"/>
<path class="st2" d="M509.6,219.5c7.6,0,14.3,0,22.6,0c-4.4,28.4-8.7,56.1-13.2,84.4c-7.4,0-14.3,0-22.6,0
	C500.7,276,505.1,248.2,509.6,219.5z"/>
<path class="st2" d="M358,304.1c-8,0-14.6,0-22.5,0c1.5-10.2,2.9-19.9,4.4-29.5c2.5-16.2,5.4-32.3,7.7-48.5c0.7-5.3,2.6-7.5,8-7.1
	c5,0.4,10,0.1,15.9,0.1C366.9,248.1,362.5,275.9,358,304.1z"/>
<path class="st0" d="M275.6,0c1,0.8,2.6,1.9,4,3.2c8,7.6,15.9,15.2,26,25c-6.1,5.1-11.3,8.9-15.9,13.4c-4.6,4.5-8.6,9.7-12.5,14.2
	c-10.4-10.8-19.4-20.3-28.4-29.6C256.3,18.7,265.5,9.7,275.6,0z"/>
<g>
</g>
<g>
</g>
<g>
</g>
<g>
</g>
<g>
</g>
<g>
</g>
</svg>
