<?xml version="1.0" encoding="utf-8"?>
<!-- Generator: Adobe Illustrator 26.2.1, SVG Export Plug-In . SVG Version: 6.00 Build 0)  -->
<svg version="1.1" id="Layer_1" xmlns="http://www.w3.org/2000/svg" xmlns:xlink="http://www.w3.org/1999/xlink" x="0px" y="0px"
	 viewBox="0 0 824.9 456" style="enable-background:new 0 0 824.9 456;" xml:space="preserve">
<style type="text/css">
	
		.st0{clip-path:url(#SVGID_00000142171094789098488450000006085453090932236991_);fill:url(#SVGID_00000026854169521719541610000011561219300436793789_);}
	.st1{fill:#FFFFFF;}
	
		.st2{clip-path:url(#SVGID_00000103984678931033450800000002692705746329210024_);fill:url(#SVGID_00000044156228757785739320000010199514246104401056_);}
	
		.st3{clip-path:url(#SVGID_00000171714325424118810760000003259344652748080513_);fill:url(#SVGID_00000029036229835744585380000007780860479120137363_);}
	
		.st4{clip-path:url(#SVGID_00000173846714825202280440000000740006305168469398_);fill:url(#SVGID_00000121272432222572895670000003703164153147052213_);}
	
		.st5{clip-path:url(#SVGID_00000003064757693992990450000014124539164815233962_);fill:url(#SVGID_00000150072893515094153770000000474757879737445050_);}
	
		.st6{clip-path:url(#SVGID_00000174587228020603675630000016831981412331043969_);fill:url(#SVGID_00000032641999392194475790000004892879946688800952_);}
	
		.st7{clip-path:url(#SVGID_00000039129723713910875740000017296930568670778270_);fill:url(#SVGID_00000142870317903743435860000000750613762923998632_);}
	
		.st8{clip-path:url(#SVGID_00000122711349238150617910000007754913784841458828_);fill:url(#SVGID_00000118384067695720478020000017398916032767509892_);}
	
		.st9{clip-path:url(#SVGID_00000113340674427397332860000006346045328716563586_);fill:url(#SVGID_00000151537623857988415520000002020630759360021678_);}
	
		.st10{clip-path:url(#SVGID_00000182490394453029850340000017180695449955950732_);fill:url(#SVGID_00000047059769276659005820000004237673465448442761_);}
	.st11{fill:#51B848;}
	.st12{fill:#F37021;}
	.st13{fill:#00B5EB;}
</style>
<g>
	<g>
		<g>
			<defs>
				<polygon id="SVGID_1_" points="12.3,388.3 809,388.3 809,393.2 15.3,393.2 				"/>
			</defs>
			<clipPath id="SVGID_00000080925574694087583780000008786038276165712281_">
				<use xlink:href="#SVGID_1_"  style="overflow:visible;"/>
			</clipPath>
			
				<linearGradient id="SVGID_00000135658959592324389640000010476572142089231264_" gradientUnits="userSpaceOnUse" x1="410.6014" y1="391.3351" x2="410.2621" y2="399.4034">
				<stop  offset="0" style="stop-color:#F58220"/>
				<stop  offset="1" style="stop-color:#C55827"/>
			</linearGradient>
			
				<rect x="12.3" y="388.3" style="clip-path:url(#SVGID_00000080925574694087583780000008786038276165712281_);fill:url(#SVGID_00000135658959592324389640000010476572142089231264_);" width="796.7" height="4.9"/>
		</g>
		<path class="st1" d="M624.2,253.7c0.2,0.5,0.5,0.9,0.9,1.4c0.4,0.4,0.8,0.9,1.2,1.2c0.4,0.4,0.9,0.6,1.4,0.9
			c0.5,0.2,1.1,0.3,1.7,0.3c0.6,0,1.3-0.2,1.9-0.6c0.6-0.4,1-0.9,1.1-1.7c0-0.1,0-0.3,0-0.5c0-0.5-0.2-1-0.5-1.4
			c-0.1-0.2-0.3-0.5-0.6-0.7c-0.2-0.2-0.5-0.4-0.7-0.6c-0.8-0.7-1.5-1.4-2.2-2.1c-0.7-0.7-1.2-1.4-1.7-2.2c-0.3-0.6-0.6-1.2-0.8-1.9
			c-0.2-0.7-0.3-1.4-0.3-2.2c0-0.5,0-1.1,0.1-1.7c0.1-1,0.5-2.1,1-3.4c0.5-1.3,1.3-2.5,2.3-3.6c1-1.1,2.2-2.1,3.6-2.9
			c1.4-0.8,3.1-1.2,5.1-1.2c1.1,0,2.2,0.2,3.3,0.5c1.1,0.3,2.1,0.7,3,1.2l-1.6,10.3c-0.2-0.4-0.5-0.8-0.8-1.3
			c-0.3-0.4-0.7-0.8-1.1-1.2c-0.4-0.3-0.9-0.6-1.4-0.9c-0.5-0.2-1-0.3-1.5-0.3c-0.5,0-1.1,0.2-1.7,0.5c-0.6,0.4-0.9,0.9-1,1.5v0.3
			c0,0.6,0.2,1.1,0.6,1.6c0.2,0.3,0.4,0.5,0.7,0.7c0.3,0.2,0.5,0.4,0.7,0.6c0.9,0.7,1.6,1.4,2.3,2c0.6,0.6,1.2,1.4,1.5,2.1
			c0.3,0.5,0.5,1.1,0.7,1.7c0.2,0.6,0.2,1.3,0.2,2.1c0,0.7-0.1,1.4-0.2,2.1c-0.2,1.6-0.7,3.1-1.5,4.4c-0.7,1.4-1.7,2.6-2.8,3.6
			c-1.1,1-2.4,1.8-3.8,2.4c-1.4,0.6-2.9,0.9-4.5,0.9c-2.3,0-4.5-0.5-6.6-1.4L624.2,253.7z M608.2,231.3h17l-1.2,8h-7.8l-0.8,4.7h7
			l-1.3,8h-7l-0.8,5.2h7.8l-1.2,8h-17L608.2,231.3z M592.2,265l2.5-21.2h-0.1c-0.4,1.3-0.8,2.5-1.2,3.7c-0.4,1.2-0.7,2.4-1.2,3.7
			l-4.7,13.8H580l0.1-21.2h-0.1c-0.2,1.3-0.5,2.5-0.6,3.7c-0.2,1.2-0.4,2.5-0.6,3.7l-2.9,13.8H566l9.2-33.8h11.4l-0.2,18h0.1
			c0.3-1,0.6-2.1,0.9-3.1c0.3-1,0.6-2.1,1-3.1l4-11.7h11.2l-2,33.8H592.2z M557.6,265v-4.3h-6.1l-1.4,4.3h-9.4l13.3-33.8h11.2
			l1.9,33.8H557.6z M557.7,253.5l0.2-7.8c0-1,0.1-2.1,0.1-3.2c0.1-1.1,0.1-2.1,0.2-3.2h-0.1c-0.3,1-0.6,2.1-0.9,3.2
			c-0.3,1.1-0.6,2.1-0.9,3.2l-2.5,7.8H557.7z M544,245.5l-0.2,1.4c-0.2,1.4-0.5,2.8-0.8,4.3c-0.3,1.5-0.8,2.9-1.3,4.3
			c-0.5,1.4-1.2,2.7-1.9,3.9c-0.8,1.2-1.7,2.3-2.7,3.2c-1,0.9-2.3,1.7-3.6,2.2c-1.4,0.5-2.9,0.8-4.7,0.8c-2,0-3.7-0.3-5.1-1
			c-1.4-0.7-2.5-1.6-3.3-2.7c-0.9-1.1-1.5-2.5-1.8-4c-0.4-1.5-0.6-3.1-0.6-4.8c0-1.6,0.1-3.1,0.4-4.7c0.3-2.1,0.9-4.2,1.6-6.3
			c0.8-2.1,1.8-4,3-5.7c1.3-1.7,2.8-3,4.7-4.1c1.8-1.1,4-1.6,6.5-1.6c1.4,0,2.6,0.2,3.7,0.6c1.1,0.4,2.1,1,3,1.7
			c0.9,0.7,1.6,1.6,2.2,2.6s1,2.1,1.3,3.4l-9.3,3.3v-0.4c0-0.3,0-0.7-0.1-1c-0.1-0.4-0.2-0.7-0.4-1c-0.2-0.3-0.4-0.5-0.6-0.7
			c-0.3-0.2-0.6-0.3-0.9-0.3c-1,0-1.9,0.4-2.6,1.3c-0.7,0.8-1.2,1.8-1.6,2.9c-0.4,1.1-0.7,2.3-0.9,3.4c-0.2,1.2-0.3,2.1-0.4,2.7
			c-0.1,0.5-0.1,1.1-0.2,1.9c-0.1,0.7-0.1,1.5-0.1,2.3c0,0.5,0,1.1,0.1,1.6c0.1,0.5,0.2,0.9,0.4,1.3c0.2,0.4,0.5,0.7,0.8,0.9
			c0.3,0.2,0.7,0.4,1.3,0.4c0.6,0,1.1-0.2,1.6-0.5c0.5-0.3,0.9-0.7,1.2-1.2c0.3-0.5,0.6-1,0.8-1.6c0.2-0.6,0.3-1.1,0.4-1.6h-3.4
			l1.1-7.1H544z M492.6,265l2.1-13.7h-4.3l-2.1,13.7h-9.1l5.2-33.8h9.1l-1.9,12.1h4.3l1.9-12.1h9.1l-5.2,33.8H492.6z M463.1,265
			l4-25.5h-5l1.3-8.2h19.4l-1.3,8.2h-5.2l-4,25.5H463.1z M461.9,231.3l-3.4,22.1c-0.1,1-0.4,2.2-0.9,3.6c-0.4,1.4-1.1,2.7-2.1,4
			c-1,1.3-2.3,2.4-4,3.3c-1.7,0.9-3.8,1.3-6.4,1.3c-2.1,0-3.7-0.3-5-0.9c-1.3-0.6-2.3-1.3-3-2.1c-0.7-0.9-1.2-1.8-1.4-2.9
			c-0.3-1.1-0.4-2.1-0.4-3.2c0-0.6,0-1.2,0.1-1.7c0.1-0.5,0.1-1,0.2-1.5l3.4-22.1h9.1l-3.3,21.2c-0.1,0.4-0.1,0.7-0.2,1.1
			c-0.1,0.4-0.1,0.8-0.1,1.2c0,0.3,0,0.5,0,0.6c0.1,0.5,0.2,0.9,0.5,1.2c0.3,0.3,0.7,0.5,1.3,0.5c0.7,0,1.2-0.2,1.5-0.5
			c0.4-0.3,0.6-0.7,0.8-1.1c0.2-0.5,0.4-1,0.4-1.5c0.1-0.5,0.2-1,0.2-1.4l3.3-21.3H461.9z M408.4,248.2c0.3-2.1,0.9-4.1,1.7-6.2
			c0.8-2.1,1.8-3.9,3.1-5.6c1.3-1.7,2.8-3,4.6-4.1c1.8-1,3.9-1.6,6.2-1.6c1.9,0,3.5,0.4,4.9,1.1c1.3,0.7,2.4,1.7,3.3,2.9
			c0.8,1.2,1.4,2.6,1.8,4.2c0.4,1.6,0.6,3.2,0.6,4.9c0,0.7,0,1.4-0.1,2.1c-0.1,0.7-0.1,1.4-0.3,2.1c-0.3,2.1-0.9,4.1-1.7,6.2
			c-0.8,2.1-1.8,3.9-3.1,5.6c-1.3,1.7-2.8,3-4.6,4.1c-1.8,1-3.9,1.6-6.2,1.6c-1.9,0-3.6-0.4-4.9-1.1c-1.3-0.7-2.4-1.7-3.2-2.9
			c-0.8-1.2-1.4-2.6-1.8-4.2c-0.4-1.6-0.6-3.3-0.6-5c0-0.7,0-1.4,0.1-2.1C408.2,249.5,408.2,248.8,408.4,248.2z M417.7,248.2
			c-0.1,0.4-0.1,1-0.2,1.7c-0.1,0.7-0.1,1.5-0.1,2.4c0,0.6,0,1.2,0.1,1.8c0.1,0.6,0.2,1.1,0.4,1.5c0.2,0.4,0.5,0.8,0.8,1.1
			c0.3,0.3,0.7,0.4,1.3,0.4c0.6,0,1.1-0.2,1.5-0.5c0.5-0.3,0.9-0.8,1.2-1.3c0.3-0.6,0.6-1.2,0.9-1.8c0.3-0.7,0.5-1.3,0.6-2
			c0.2-0.7,0.3-1.3,0.4-1.9c0.1-0.6,0.2-1.1,0.2-1.4c0.1-0.4,0.1-1,0.2-1.8c0.1-0.8,0.2-1.6,0.2-2.4c0-0.6,0-1.2-0.1-1.7
			c-0.1-0.6-0.2-1.1-0.4-1.5c-0.2-0.4-0.5-0.8-0.8-1.1c-0.3-0.3-0.7-0.4-1.3-0.4c-0.6,0-1.1,0.2-1.5,0.5c-0.5,0.3-0.9,0.8-1.2,1.3
			c-0.3,0.6-0.6,1.2-0.9,1.8c-0.3,0.7-0.5,1.3-0.7,2c-0.2,0.7-0.3,1.3-0.4,1.9C417.8,247.3,417.7,247.8,417.7,248.2z M388.8,265
			l2.2-14.3l-5.3-19.4h9.5l1.5,10.4h0.1l4.8-10.4h9.5L397.9,265H388.8z"/>
		<g>
			<defs>
				<path id="SVGID_00000134931292477362504870000015679755106950496384_" d="M791.4,391.8C653,368.4,594.5,241.6,451.8,324.2
					c-18.7,10.8-17.5,10.7-39.7,10.7c-22.1,0-21,0.1-39.7-10.7c-140.1-81.1-199.3,40-332.3,66.7c-7.7,1.6-20,4.5-27.8,1.9
					C6,390.8,2.1,385.8,0,377.8c0.8,0,0.4,0,1.2,0c2.4,4.9,5.5,8.4,10.4,10c7.8,2.6,20.1-0.2,28.2-1.9
					c132.8-27.8,192.7-163.2,332.6-82.3c18.7,10.8,17.5,10.7,39.7,10.7c22.1,0,21,0.1,39.7-10.7c142.2-82.2,201.6,58.2,338.8,83
					c7.8,1.4,18,3.5,25.2-0.3c3.5-1.9,5.9-4.9,7.8-8.9c0.8,0,0.4,0,1.2,0c-1.8,7.1-5,12.3-10.2,14.3
					C807.2,394.4,798.9,393.1,791.4,391.8"/>
			</defs>
			<clipPath id="SVGID_00000084515706930988652060000011278941918205390015_">
				<use xlink:href="#SVGID_00000134931292477362504870000015679755106950496384_"  style="overflow:visible;"/>
			</clipPath>
			
				<linearGradient id="SVGID_00000068648767890996282750000000296380606858379196_" gradientUnits="userSpaceOnUse" x1="412.9612" y1="297.3412" x2="407.2997" y2="414.5699">
				<stop  offset="0" style="stop-color:#F58220"/>
				<stop  offset="1" style="stop-color:#C55827"/>
			</linearGradient>
			
				<rect y="221.4" style="clip-path:url(#SVGID_00000084515706930988652060000011278941918205390015_);fill:url(#SVGID_00000068648767890996282750000000296380606858379196_);" width="824.9" height="174.1"/>
		</g>
		<g>
			<defs>
				<path id="SVGID_00000135692701092351304890000015529549107691777691_" d="M422.1,360.9c0.5-3.3-0.7-3.4-1.7-5.4
					c-0.3-0.6-0.7-1.1-1.1-1.3c-1.3-0.8-2.8-0.1-3.7,0.6c-0.5,0.4-0.8,0.8-1.3,1.2c-0.6,0.6-0.4,0.5-0.7,1.1c0,0-0.1,0.2-0.1,0.2
					c-0.1,0.3,0,0.1-0.2,0.3c-0.5-0.6-1.1-0.6-1.9-2c-0.6-1.1-0.8-1.6-1.5-2.5c-0.8-1-2.6-3.5-3-5c0.2-0.4,0.5-0.6,0.8-0.9
					c0.5-0.5,0.6-0.3,1.4-0.3l24.5,1.2c0.3,0.1,0.2,0.1,0.3,0.5c0.3,0.9,0.5,1.1-0.6,2.9c-0.9,1.4-2.3,2.2-3.2,3.7
					c-0.8,1.2-0.4,1.1-1.7,1.8c-0.8,0.5-1.3,1-1.9,1.5c-0.8,0.7-1.3,0.6-2.3,1.2C423.6,360,422.7,360.9,422.1,360.9 M406.6,344.9
					l1,0l0.5,1l26.1,1.2c0.9-1.1,0.8-1.9,2.8-0.5l0.4,0.4c0.4,0.3,0,0.3,0.7,0.2c0.3-0.9,0.4-1.9,0.6-2.8c0.7-2.4,2.2-5.6,5.2-5.5
					c2.4,0.1,3.6,2.7,4,4.7c0.2,0.8,0,0.8,0.5,1.3c0.7,0.6,0.8,0.8,0.9,1.7c0.3,1.3,0.6,0.8,3.9,0.9c0.2,0,0.5,0,0.7,0
					c0,0,0.1,0,0.1,0c0.8,0.2,0.7,1.2,0.5,1.6c-0.2,0.5-0.8,0.5-1.4,0.4c-1.1-0.1-2.5-0.2-3.6-0.2c-0.3,0.4-0.4,1.1-0.7,1.6
					c-0.1,0.3-0.3,0.5-0.5,0.6c-0.3,0.2-0.7,0.2-0.9,0.4c-0.2,0.2-2.3,6.6-6.4,4.7c-1.1-0.5-2.1-1.9-2.5-3.3
					c-0.5-1.4-0.5-4.7-0.6-5.2c-0.6,0.2-0.1-0.3-0.5,1.2c-0.5,1.4-1.3,2.4-1.9,3.2c-1,1.5-1.6,3.1-2.7,4.2c-2.5,2.4-1.6,1.8-3.2,3.5
					c-0.6,0.6-1,1.4-1.6,1.9c-1,1-2,0-1.8,4.9c0,0.6,0.2,1.1,0.4,1.6c0.8,1.9,3.1,3.9,4.4,5.7c1,1.5,1.6,3.1,0.4,4.8
					c-0.7,1-1.7,1.7-3.1,2c0.2,1.1,0.7,2.5,0.9,3.7c0.4,1.8,1.2,1.3,1.6,3.1c0.3,1.3,0.3,2.4-0.7,3.5c-0.8,0.8-2.3,1.1-3.6,0.7
					c-0.4-1.7,0.5-2.3,0.7-3.6c0.6-4.3-2.2-3.7-3.4-5.5l-1.9-2.6c-3.7,0.4-1.9,0.1-4.8-0.6c1.4,2.4,0.8,1.5,2.6,3.9
					c0.9,1.2,1.1,0.4,1.5,1.8c0.2,0.7,0.7,2.6,0,3l-1.5,0.3c-1.7,0.3-3.6,2.1-5.7,1.2c-0.5-1.4,0.9-1.7,1.5-2.3
					c0.6-0.6,0.1-0.7,0.9-1.2c0.7-0.4,0.7-0.3,1.1-1.1c-0.3-0.6-1.1-1.5-1.6-1.8c-0.7-0.5-1.4-0.9-2.1-1.4c-3.9-2.4-4.8-5.9-0.8-7.6
					c1.7-0.7,4.1-1,6.1-1.2c-0.2-0.8-1.1-1.8-1.9-2.7c-4.2-2.7-2.4-4.7-2.1-6.3c0.2-1.2-1.3-2.4-2-3c-0.4-0.4-0.8-0.6-1.2-1.1
					c-0.5-0.5-0.5-0.7-1-1.2c-1.5-1.2-3.1-3.2-3.9-5.1c-0.4-1.1-0.9-2.3-1.3-3.3c-0.5,0.3-1.3,1.7-2.5,2.5c-1.9,1.2-5.3,0.2-6.6-2.5
					c-0.4-0.9-1-3.7-1.2-3.9c-0.3-0.2-0.5-0.1-0.9-0.2c-1.2,0-1.6-0.3-1-1.7l2.1,0C396.7,335.6,405.9,336.7,406.6,344.9z"/>
			</defs>
			<clipPath id="SVGID_00000111901826712763176120000017755276677143321501_">
				<use xlink:href="#SVGID_00000135692701092351304890000015529549107691777691_"  style="overflow:visible;"/>
			</clipPath>
			
				<linearGradient id="SVGID_00000017504394564047471850000001673642223628993676_" gradientUnits="userSpaceOnUse" x1="423.8276" y1="358.9493" x2="424.2517" y2="413.8369">
				<stop  offset="0" style="stop-color:#F58220"/>
				<stop  offset="1" style="stop-color:#C55827"/>
			</linearGradient>
			
				<rect x="392.9" y="335.6" style="clip-path:url(#SVGID_00000111901826712763176120000017755276677143321501_);fill:url(#SVGID_00000017504394564047471850000001673642223628993676_);" width="61.9" height="57.2"/>
		</g>
		<path class="st1" d="M682,448.8l4-26h-3.6l1.2-7.8h12.8l-5.3,33.8H682z M651.4,426.1c0.3-1.7,0.8-3.3,1.5-4.7
			c0.8-1.4,1.7-2.7,2.9-3.7c1.2-1,2.5-1.9,4-2.4c1.5-0.6,3.1-0.9,4.8-0.9c1.4,0,2.7,0.2,3.8,0.7c1.1,0.4,2.1,1.1,2.9,1.9
			c0.8,0.8,1.4,1.8,1.8,2.9c0.4,1.1,0.6,2.3,0.6,3.6c0,0.3,0,0.7,0,1c0,0.3-0.1,0.7-0.1,1c-0.2,1.6-0.7,3.1-1.5,4.6
			c-0.7,1.5-1.6,2.9-2.7,4.2c-1,1.3-2.2,2.6-3.4,3.7c-1.2,1.2-2.5,2.3-3.7,3.3l0.1,0.1c0.8-0.1,1.5-0.1,2.3-0.2
			c0.8-0.1,1.5-0.1,2.3-0.1h3.8l-1.2,7.8h-23.3l10.8-11.9c0.7-0.8,1.5-1.7,2.4-2.7c0.9-0.9,1.6-1.9,2.4-2.9c0.7-1,1.4-2.1,1.9-3.1
			c0.5-1.1,0.9-2.2,1.1-3.2c0-0.1,0-0.2,0-0.4c0-0.1,0-0.2,0-0.4c0-0.6-0.1-1.1-0.4-1.6c-0.2-0.5-0.7-0.7-1.3-0.7
			c-0.5,0-0.9,0.1-1.3,0.4c-0.3,0.3-0.6,0.7-0.8,1.1c-0.2,0.4-0.4,0.9-0.5,1.3c-0.1,0.5-0.2,0.9-0.3,1.2l-0.2,1.3h-8.8L651.4,426.1z
			 M636.4,414.4c1.9,0,3.4,0.4,4.6,1.1c1.2,0.7,2.2,1.7,3,2.8c0.7,1.2,1.3,2.5,1.6,4c0.3,1.5,0.5,3.1,0.5,4.6c0,1.7-0.1,3.4-0.4,4.9
			c-0.3,1.9-0.8,3.9-1.5,5.9c-0.7,2-1.6,3.9-2.8,5.7c-1.2,1.7-2.6,3.1-4.3,4.3c-1.7,1.1-3.8,1.7-6.1,1.7c-1.9,0-3.4-0.4-4.6-1.1
			c-1.2-0.7-2.2-1.7-3-2.8c-0.7-1.2-1.3-2.5-1.6-4c-0.3-1.5-0.4-3.1-0.4-4.6c0-0.8,0-1.7,0.1-2.5c0.1-0.8,0.2-1.6,0.3-2.4
			c0.3-1.9,0.8-3.9,1.5-5.9c0.7-2,1.6-3.9,2.8-5.7c1.2-1.7,2.6-3.1,4.3-4.3S634,414.4,636.4,414.4z M635.2,422.2
			c-0.7,0-1.3,0.3-1.8,1c-0.5,0.7-0.9,1.5-1.3,2.4s-0.7,2-0.9,3.1c-0.2,1.1-0.4,2.2-0.6,3.1c-0.1,0.8-0.3,1.7-0.4,2.7
			c-0.1,1-0.2,1.9-0.2,2.8c0,1.1,0.1,2.1,0.4,2.9c0.3,0.8,0.8,1.2,1.6,1.2c0.7,0,1.3-0.3,1.8-1c0.5-0.7,0.9-1.5,1.3-2.4
			c0.3-1,0.6-2,0.9-3.1c0.2-1.1,0.4-2.2,0.6-3.1c0.1-0.9,0.3-1.8,0.4-2.8c0.1-1,0.2-1.9,0.2-2.8c0-1.1-0.1-2.1-0.4-2.9
			C636.5,422.6,636,422.2,635.2,422.2z M597.2,426.1c0.3-1.7,0.8-3.3,1.5-4.7c0.8-1.4,1.7-2.7,2.9-3.7c1.2-1,2.5-1.9,4-2.4
			c1.5-0.6,3.1-0.9,4.8-0.9c1.4,0,2.7,0.2,3.8,0.7c1.1,0.4,2.1,1.1,2.9,1.9c0.8,0.8,1.4,1.8,1.8,2.9c0.4,1.1,0.6,2.3,0.6,3.6
			c0,0.3,0,0.7,0,1c0,0.3-0.1,0.7-0.1,1c-0.2,1.6-0.7,3.1-1.5,4.6c-0.7,1.5-1.6,2.9-2.7,4.2c-1,1.3-2.2,2.6-3.4,3.7
			c-1.2,1.2-2.5,2.3-3.7,3.3l0.1,0.1c0.8-0.1,1.5-0.1,2.3-0.2c0.8-0.1,1.5-0.1,2.3-0.1h3.8l-1.2,7.8h-23.3l10.8-11.9
			c0.7-0.8,1.5-1.7,2.4-2.7c0.9-0.9,1.6-1.9,2.4-2.9c0.7-1,1.4-2.1,1.9-3.1c0.5-1.1,0.9-2.2,1.1-3.2c0-0.1,0-0.2,0-0.4
			c0-0.1,0-0.2,0-0.4c0-0.6-0.1-1.1-0.4-1.6c-0.2-0.5-0.7-0.7-1.3-0.7c-0.5,0-0.9,0.1-1.3,0.4c-0.3,0.3-0.6,0.7-0.8,1.1
			c-0.2,0.4-0.4,0.9-0.5,1.3c-0.1,0.5-0.2,0.9-0.3,1.2l-0.2,1.3H597L597.2,426.1z M560.4,448.8v-4.4h-6.1l-1.4,4.4h-9.4l13.4-33.8
			h11.2l1.9,33.8H560.4z M560.4,437.2l0.2-7.9c0-1,0.1-2.1,0.1-3.2c0.1-1.1,0.1-2.1,0.2-3.2h-0.1c-0.3,1-0.6,2.1-0.9,3.2
			c-0.3,1.1-0.6,2.1-0.9,3.2l-2.5,7.9H560.4z M521.7,414.9h8.7l4.1,20.4l0.1-0.1c0.1-2,0.2-3.9,0.2-5.8c0-1.9,0.2-3.9,0.5-5.8
			l1.3-8.6h8.8l-5.3,33.8h-8.8l-3.8-19.5l-0.1,0.1c-0.1,1.6-0.3,3.2-0.4,4.8c-0.1,1.6-0.3,3.1-0.5,4.8l-1.5,9.9h-8.8L521.7,414.9z
			 M504,448.8v-4.4h-6.1l-1.4,4.4H487l13.4-33.8h11.2l1.9,33.8H504z M504,437.2l0.2-7.9c0-1,0.1-2.1,0.1-3.2
			c0.1-1.1,0.1-2.1,0.2-3.2h-0.1c-0.3,1-0.6,2.1-0.9,3.2c-0.3,1.1-0.6,2.1-0.9,3.2l-2.5,7.9H504z M471.7,448.8l2.2-14.4l-5.3-19.5
			h9.5l1.5,10.5h0.1l4.8-10.5h9.5l-10.9,19.5l-2.2,14.4H471.7z M454.4,448.8l-2.9-14.1l-0.1,0.1c-0.1,0.8-0.2,1.7-0.3,2.5
			c-0.1,0.8-0.2,1.7-0.4,2.5l-1.4,9h-9.2l5.3-33.8h8.8c1.8,0,3.4,0.1,4.9,0.4c1.5,0.3,2.8,0.7,3.9,1.4c1.1,0.6,1.9,1.5,2.5,2.6
			c0.6,1.1,0.9,2.5,0.9,4.2c0,0.4,0,0.8-0.1,1.3c0,0.4-0.1,0.9-0.2,1.4c-0.3,1.9-1,3.6-2,5.1c-1.1,1.5-2.6,2.6-4.5,3.4l4.6,14.1
			H454.4z M452.8,430.6c0.6,0,1.2-0.1,1.7-0.4c0.5-0.2,1-0.6,1.3-1c0.4-0.4,0.7-0.9,0.9-1.4c0.2-0.5,0.4-1.1,0.5-1.6
			c0-0.2,0.1-0.3,0.1-0.5c0-0.1,0-0.3,0-0.4c0-1.1-0.3-1.9-0.9-2.4c-0.6-0.5-1.4-0.8-2.5-0.8h-0.4l-1.3,8.3L452.8,430.6z
			 M427.8,448.8v-4.4h-6.1l-1.4,4.4h-9.4l13.4-33.8h11.2l1.9,33.8H427.8z M427.8,437.2l0.2-7.9c0-1,0.1-2.1,0.1-3.2
			c0.1-1.1,0.1-2.1,0.2-3.2h-0.1c-0.3,1-0.6,2.1-0.9,3.2c-0.3,1.1-0.6,2.1-0.9,3.2l-2.5,7.9H427.8z M398.5,448.8l2.1-13.7h-4.4
			l-2.1,13.7H385l5.3-33.8h9.2l-1.9,12.1h4.4l1.9-12.1h9.2l-5.3,33.8H398.5z M360.9,456h-7.1l6.6-16.3h9L360.9,456z M345.4,448.8
			v-4.4h-6.1l-1.4,4.4h-9.4l13.4-33.8H353l1.9,33.8H345.4z M345.5,437.2l0.2-7.9c0-1,0.1-2.1,0.1-3.2c0.1-1.1,0.1-2.1,0.2-3.2h-0.1
			c-0.3,1-0.6,2.1-0.9,3.2c-0.3,1.1-0.6,2.1-0.9,3.2l-2.5,7.9H345.5z M311,448.8l5.3-33.8h9.2l-4,25.8h6.9l-1.2,8H311z M311.1,414.9
			l-3.5,22.1c-0.1,1-0.4,2.2-0.9,3.6c-0.4,1.4-1.1,2.8-2.1,4c-1,1.3-2.3,2.4-4,3.3c-1.7,0.9-3.8,1.3-6.5,1.3c-2.1,0-3.7-0.3-5-0.9
			c-1.3-0.6-2.3-1.3-3-2.2c-0.7-0.9-1.2-1.8-1.4-2.9c-0.3-1.1-0.4-2.1-0.4-3.2c0-0.6,0-1.2,0.1-1.7c0.1-0.5,0.1-1,0.2-1.5l3.5-22.1
			h9.2l-3.3,21.3c-0.1,0.4-0.1,0.7-0.2,1.1c-0.1,0.4-0.1,0.8-0.1,1.2c0,0.3,0,0.5,0,0.6c0.1,0.5,0.2,0.9,0.5,1.2
			c0.3,0.3,0.7,0.5,1.3,0.5c0.7,0,1.2-0.2,1.5-0.5c0.4-0.3,0.7-0.7,0.8-1.1c0.2-0.5,0.4-1,0.4-1.5c0.1-0.5,0.2-1,0.2-1.4l3.3-21.3
			H311.1z M283.8,414.9l-9.8,16.3l5.4,17.5h-9.8l-3.3-15.5h0l-2.4,15.5h-9.2l5.3-33.8h9.2l-2.2,14.4h0l7.3-14.4H283.8z M240.1,448.8
			l2.1-13.7h-4.4l-2.1,13.7h-9.2l5.3-33.8h9.2l-1.9,12.1h4.4l1.9-12.1h9.2l-5.3,33.8H240.1z M224.8,424.9c-0.6-0.6-1.1-1.1-1.7-1.5
			c-0.6-0.3-1.3-0.5-2.3-0.5c-1.2,0-2.2,0.3-3.1,0.9c-0.9,0.6-1.6,1.3-2.2,2.2c-0.6,0.9-1,1.9-1.4,2.9c-0.3,1-0.6,2-0.7,3
			c-0.1,0.4-0.1,0.9-0.2,1.3c0,0.4-0.1,0.9-0.1,1.4c0,0.8,0.1,1.6,0.2,2.3c0.1,0.7,0.4,1.4,0.7,2c0.3,0.6,0.8,1,1.4,1.4
			c0.6,0.3,1.3,0.5,2.2,0.5c1,0,2-0.2,2.7-0.6c0.8-0.4,1.6-0.9,2.5-1.6l-2,9.5c-1,0.4-1.9,0.7-2.8,0.9c-0.9,0.2-1.9,0.3-2.9,0.3
			c-1.6,0-3.1-0.3-4.5-0.8c-1.4-0.5-2.6-1.3-3.7-2.4c-1-1.1-1.8-2.4-2.4-4.1c-0.6-1.6-0.9-3.5-0.9-5.7c0-0.7,0-1.4,0.1-2.1
			c0.1-0.7,0.1-1.4,0.3-2.2c0.4-2.5,1-4.7,1.8-6.6c0.8-1.9,1.8-3.5,2.8-4.8c1-1.3,2.2-2.4,3.4-3.2c1.2-0.8,2.4-1.5,3.6-1.9
			c1.2-0.5,2.3-0.8,3.3-1c1-0.2,1.9-0.3,2.7-0.3c0.8,0,1.6,0.1,2.4,0.2c0.8,0.1,1.5,0.3,2.2,0.6L224.8,424.9z M178.6,414.9h8.7
			l4.1,20.4l0.1-0.1c0.1-2,0.2-3.9,0.2-5.8c0-1.9,0.2-3.9,0.5-5.8l1.3-8.6h8.8l-5.3,33.8h-8.8l-3.8-19.5l-0.1,0.1
			c-0.1,1.6-0.3,3.2-0.4,4.8c-0.1,1.6-0.3,3.1-0.5,4.8l-1.5,9.9h-8.8L178.6,414.9z M160.8,448.8v-4.4h-6.1l-1.4,4.4h-9.4l13.4-33.8
			h11.2l1.9,33.8H160.8z M160.9,437.2l0.2-7.9c0-1,0.1-2.1,0.1-3.2c0.1-1.1,0.1-2.1,0.2-3.2h-0.1c-0.3,1-0.6,2.1-0.9,3.2
			c-0.3,1.1-0.6,2.1-0.9,3.2l-2.5,7.9H160.9z M121.6,448.8l5.3-33.8h8.3c1.8,0,3.5,0.1,5,0.4c1.5,0.3,2.8,0.8,4,1.5
			c1.1,0.7,2,1.6,2.6,2.8c0.6,1.2,1,2.6,1,4.3c0,0.4,0,0.8-0.1,1.2c0,0.4-0.1,0.9-0.2,1.3c-0.3,2.1-0.9,3.9-1.7,5.3
			c-0.8,1.4-1.8,2.6-3.1,3.5c-1.2,0.9-2.6,1.5-4.2,1.9c-1.6,0.4-3.3,0.6-5.2,0.6h-0.9l-1.7,11.1H121.6z M138.4,426.3
			c0-0.1,0-0.3,0-0.4c0-0.1,0-0.3,0-0.4c0-0.9-0.2-1.7-0.7-2.3c-0.5-0.6-1.2-0.9-2.1-0.9l-0.7,0l-1.2,7.8h0.3c1.1,0,2.1-0.3,2.9-1
			C137.7,428.5,138.2,427.5,138.4,426.3z"/>
		<g>
			<defs>
				<path id="SVGID_00000055683591779004042400000006233762392607536280_" d="M250.3,329.3c0,0,0.3,0.4,0.3,0.5
					c0,0.1-0.1,0.1-0.1,0.1c-0.1,0-0.3-0.3-0.3-0.5C250.1,329.3,250.2,329.3,250.3,329.3 M253.2,322.4c-2.1,0-3.8,1.5-4,3.5
					c-0.1-0.1-0.3-0.3-0.4-0.1c0,0,0,1,0.1,1.5c0,0,0.2,1.4,0.1,2c0,0,0.2,1.4,0.5,2.3c0,0,0.6,2.2,0.7,2.8c0.1,0.6,0.3,2.6,0.7,3.3
					c0,0,0.3,0.8,0,1c-0.3,0.3-1.4,1.3-1.7,1.7c0,0-1.1,1.3-1.3,1.5c0,0-0.2-0.1-0.2-0.1c0-0.1,0-0.5-0.1-0.5c0,0,0-0.8-0.1-0.8
					c0,0-0.4-0.1-0.2-0.3c0,0,0.6-0.3,0.1-0.6c0,0-0.6-0.3-0.7-0.5c0,0,0-0.7-0.6-1.3c0,0-0.9-1.3-2.9-0.8c0,0-1.9,0.4-2.7,2.5
					c0,0-0.3,1.7,0.3,2.4c0,0,0.6,1,1.6,1.6c0,0,0.3,0.5,0.1,1c0,0-0.2,0.4-1.3,1.2c0,0-1.3,1-1.5,1.2c0,0-1.1,0.1-1.7,0.9
					c0,0-0.6,0.7-1.6,2.8c0,0-1,1.3-1.7,2.2c0,0-1,1.5-1.5,1.8c-0.5,0.3-2.2,1.2-3,2.4c0,0-1.3,1.5-2.9,2.7c0,0-2.1,1.7-2.8,2.1
					c0,0-0.8,0.3-1.4,1c0,0-0.9,0.9-1,0.9c-0.1,0-0.9,0.8-1,1c0,0,0,0.3,0.5,0.1c0,0,1.3-0.6,1.4-0.7c0.1-0.1,0.5-0.3,0.8-0.6
					c0,0,0.7-0.5,0.8-0.2c0,0.1,0,0.1,0,0.1s-0.8,0.8-0.8,0.9c0,0,0,0.3,0.7,0.1c0,0,0.4-0.4,0.8-0.9c0,0,0-0.1,0.5-0.1
					c0,0,0.7-0.2,0.9-1.2c0,0,0-0.4,0.7-0.8c0,0,0.6-0.4,1.5-0.9c0,0,1.6-0.6,2.7-1.3c0,0,1.7-1.2,2.7-2.3c0,0,0.9-0.7,1.8-1.6
					c0,0,2.5-1.8,3.5-4h0.1l0.1,0.1c0,0,1,1,1.3,1.3c0,0,0,0.2,0,0.8c0,0,0.2,1.9,0.1,2.9c-0.1,0.9,0.1,1.4-0.3,2.4
					c-0.4,1-0.7,1.5-0.7,1.5l0.3,0.1c0,0-0.1,1-1,2.1c-0.9,1.1-4.2,4.2-4.2,4.2s-1.7,1.6-1.7,1.7c0,0.1-0.1,0.7-0.3,0.9
					c-0.3,0.2-0.6,0.7-0.9,0.8c-0.3,0.1-1-0.1-1.3,0.1c-0.2,0.2-0.3,0.2-0.3,0.2s-2.8-0.9-6.5,1.4c0,0-0.6,0.2-0.9,0
					c0,0-0.4-0.2-1.3-0.1c0,0-0.4-0.3-0.8-0.2c-0.4,0-1.2,0.3-1.6,0.8c-0.4,0.5-2.3,2.8-2.3,2.8s-2.1,2.7-2.1,3.1
					c0,0.4,0.3,1.5,1.7,1c0,0,2.1-1.8,2.4-2.1c0.3-0.3,1.9-1.2,3-1.6c0,0,0.9-0.7,1.4-0.8l0.6-0.1c0,0,0-0.6,0.6-0.7
					c0.5-0.1,5-0.2,5.9,0c0,0,1.1,0.3,1.2,0.5c0.1,0.2,0.9,3.1,0.9,3.1s0.2,0.8,1.2,0.3c0,0,1.2-1,1.5-1.2c0,0,0.3,0.1,0.1,0.6
					c-0.2,0.4-0.4,1.4-1,1.8c0,0-0.7,1.2-0.2,2.2c0,0,0.5,0.8,1.5-0.1c0,0,1.2-1.3,1.7-2.1c0,0,0.6-0.7,0.9-0.7c0,0,0.5,0.5,0.7,0
					c0.2-0.5,0.5-0.6,1-0.6c0.5,0,2.2,0.2,2.9,0.6l0.1,1.5c0,0,1.3,0.8,2,0.9c0.6,0.1,1,0.4,1.5,0.7c0.5,0.3,1.8,1.2,2.2,0
					c0.4-1.2,1.5-4.6,1.5-5.1c0-0.5,0.4-4.2,0.5-5c0-0.7-0.1-4.4-0.6-5.4l0.5,0.1c0,0,0.2-4.8,0-7c-0.2-2.3-0.1-7.3-0.3-8.8
					c-0.2-1.5-1-2.7-1.8-3.6v-1c0,0,0-0.9,1.4-2.1c0,0,2.1-2.1,2.5-3.2c0,0,0.9-1.4,1.2-1.7c0,0,0.5-1.5-1-4.3c0,0-1.2-2.1-1.4-2.5
					c0,0-0.1-0.4,0.1-0.7c0,0,0.6-0.5,0-1.3c0,0,0.1-0.1,0.2-0.1c0,0,0,0,0.1,0l0,0l0,0c0.5,0.2,1.1,0.4,1.7,0.4
					c2.2,0,4.1-1.8,4.1-4.1C257.3,324.2,255.4,322.4,253.2,322.4z M237.7,375.6c0,0,1.6-1.4,2-1.6c0.3-0.2,3-2.5,3.3-4
					c0,0,0.1-0.4,0.2,1.4c0.2,1.8,0,2.5-0.1,3.3L243,375c0,0-2.5,0.3-3.2,0.6C239.1,375.8,237.5,375.8,237.7,375.6z"/>
			</defs>
			<clipPath id="SVGID_00000020365973359939799770000005087237836244003002_">
				<use xlink:href="#SVGID_00000055683591779004042400000006233762392607536280_"  style="overflow:visible;"/>
			</clipPath>
			
				<linearGradient id="SVGID_00000120525582401294106060000013701255152760102313_" gradientUnits="userSpaceOnUse" x1="236.1184" y1="345.2827" x2="236.4047" y2="405.8425">
				<stop  offset="0" style="stop-color:#F58220"/>
				<stop  offset="1" style="stop-color:#C55827"/>
			</linearGradient>
			
				<rect x="215" y="322.4" style="clip-path:url(#SVGID_00000020365973359939799770000005087237836244003002_);fill:url(#SVGID_00000120525582401294106060000013701255152760102313_);" width="42.2" height="60.6"/>
		</g>
		<g>
			<defs>
				<path id="SVGID_00000031190988673335353440000006466882361159281588_" d="M470,351.7c0,0,0,0.9,0.4,1.2c0,0,0.2,4.1,2.9,6.3
					c0,0-2.2,0-4-0.5c-1.8-0.5-13-3-13.8-3.9l0.5-0.2l1.4-0.3c0,0,0,0.2,0.5,0.1c0,0,0.8-0.4,1.2-0.4c0.4,0,2.1-0.6,2.5-0.6
					c0.4,0,3.3-0.9,3.7-1.1c0.4-0.2,0.7-0.4,1.4-0.4C467.6,352,470,351.7,470,351.7 M481.5,355.5l-2.6,3.4l-0.2-0.1
					c0,0,1.7-3.7,1.7-5.1L481.5,355.5z M485.4,360.8c0,0-0.8-1.3-1.1-1.8c0,0-1.3-1.9-1.5-2c0,0-2.2,2.1-2.5,2.4
					c0,0,1.4,0.6,1.8,0.9c0,0,0.4,0.4,0.7,0.4C482.8,360.7,484.8,360.7,485.4,360.8C485.8,361.1,485.4,360.8,485.4,360.8z
					 M494.5,381.1l0.9,0.9v1.5c0,0-0.2,0.2-0.1,0.4c0,0-0.2,0.2-0.1,0.4c0,0-0.2,0.3,0,0.4c0,0-0.1,0.4,0.1,0.4c0,0-0.3,1.2,0.3,1.5
					c0,0,1.1,0.3,1.4,0.9c0,0,1,1.4,1.8,1.3c0,0,0.4-0.1,0.3-0.4c0,0,0.4,0.1,0.4-0.2c0,0,0.4-0.1,0.3-0.4c0,0,0.4,0,0.3-0.3
					c0,0,0.4-0.1,0-0.4c0,0-2.8-1.7-2.9-1.8c0,0,0.2-0.2,0-0.4c0,0,0.5-0.2,0.1-0.5l-0.1-0.2c0,0,0.4-0.2,0-0.6l-0.1-0.5
					c0,0,0.9,0.8,1,0.9l0.1,0.2c0,0-0.5,1.2-0.4,1.4c0,0,0.2,0.2,0.4,0c0,0,0.1,0.3,0.4,0.1c0,0,0.2,0.2,0.4,0.1
					c0,0,0.2,0.3,0.4,0.1c0,0,0.5,0.8,1.2,0.1c0,0,0.2-0.2,0.1-0.6c0,0,1.5,0.1,1.3-1.2c0,0-0.3-1.1-0.2-1.5c0,0,0,0,0-0.1
					c0.1-0.4,0-0.5,0.4-0.7c0,0,0.3-0.3,0.4-0.7c0,0,0.4,0,0.8-0.1c0,0,1.2,0.5,1-0.9c0,0-0.5-1.1-0.6-1.8c0,0,0-1.1,0.3-1.7
					c0,0,0.1-0.9,0.1-1.5c0-0.6-0.1-2.6-0.2-3.4c-0.2-0.7-0.5-2.9-0.7-3.4c0,0,1.2-2.3,1.2-5.4c0,0,0.4,0,0.3-0.5c0,0,0.6,0,0.7-0.5
					c0,0-0.6-0.9-0.8-1.2c-0.2-0.3-1.6-2.4-2.3-3.1c-0.8-0.7-2-1.6-3-2.1c0,0,0.2-0.1-0.1-0.9c0,0,0.9-0.4,0.7-2.3
					c0,0-0.1-0.5,0.3-1c0.4-0.5,1.1-1.2,0.8-2.5c0,0-0.6-1.5,0.7-2.9c0,0,1.3-1.1,2.2-1.5c0,0,1.6-1,2.4-1c0,0,2-0.1,3.5-1
					c0,0,0.5-0.4,0.8-0.1c0,0,0.5,0.2,0.6-0.1c0,0,0.1-0.1,0.4,0c0,0,0.4-0.1,0.4-0.4l-0.1-0.6c0,0,2-1.2,2.6-1.5
					c0,0,0.8-0.5,1.4-0.6c0,0,0.4-0.1,0.7-0.5c0,0,0.8-1.2,1-1.5c0,0,0.2-0.3,0.1-0.4c0,0-0.1-0.1-0.3,0.1c0,0-0.7,0.7-0.9,0.9
					c0,0,0.2-1.5,0.5-2.4c0,0,0.3-0.8,0.3-0.9c0,0,0.3-0.6,0.5-1c0,0,0.2-0.4-0.1-0.1c0,0-1,1-1.3,1.5c0,0-0.8,1.5-1,2.3
					c0,0,0,1.1-0.7,1.2l-3.2,1.2c0,0,0-1-1-0.7c0,0-0.3,0.2-0.4,0.5c0,0-0.4-0.4-0.6,0.1c0,0-0.1,0.2-0.6,0.4c0,0-0.7,0.2-1.9,0.2
					c-0.1,0-0.6,0-1.1,0.4c0,0-0.2,0.1-0.9,0c0,0-0.3-0.1-1.1,0.1c-0.8,0.2-1.3,0.2-2.2,0.4c0,0-1.2,0.4-1.5,0.2
					c0,0-0.2-0.3-0.6-0.1c-0.4,0.1-1.6,0.6-2,0.6c0,0-1.4,0.2-1.8-0.1c0,0-0.3-0.6-0.3-0.9c0,0,0.7-0.9,0.6-2c0,0,0.4-0.3,0.4-0.4
					c0.1-0.1,0.4-0.7,0.4-0.7s0.1-0.4,0.1-0.6c0,0,0.5-0.2-0.1-1.2c0,0,0.1-0.8-0.1-1.2v-0.1c0,0,0.8,0.2,1.1,0.3
					c0.2,0.1,0.8-0.4,0.2-1.2c0,0-0.3-0.5-0.5-0.7c0,0,0-0.1-0.1-0.1c0,0,0.2-0.3,0.4-0.3c0,0,0-0.4-0.2-0.6c-0.2-0.2-1.2-1-1.2-1
					s-0.2-0.2-0.6,0.1c0,0,0,0.1-0.2,0c-0.2-0.1-1-0.5-1.2-0.3l-0.3,1.9H494c0,0-1.5-0.6-2.9,0c0,0-0.6,0.4-1.2,1.6
					c-0.5,1.2-0.8,2.3-0.9,2.4c0,0.1-0.2,0.7,0.6,1.8c0.7,1.1,1.3,1.6,2,1.5c0,0,0.1,1.2-0.2,1.9c-0.3,0.7-1,2.2-1,2.5
					c0,0-0.4,0.4-0.7,0.7c-0.4,0.2-0.8,0.8-1,1.1c-0.2,0.3-1.1,1.2-1.1,1.2l-0.8,1c0,0-0.5,0.7-0.8,1.1c-0.3,0.4-1.5,1.7-1.8,1.9
					c-0.3,0.2-0.9,0.7-0.9,0.7s-1-1.2-1.2-1.4c-0.1-0.2-1.4-2.8-2-3.3c0,0-0.3-1-1.2-1.1c0,0,0.3-0.4,1.4-0.4c0,0,1.1-0.1,1.1-1
					c0,0,0.2-0.4-0.4-2.2c0,0-0.4-1.4-0.8-2.2c0,0-0.1-0.9-0.2-1.1c0,0-0.5-1.9-2.1-2c0,0-1.9-0.2-2.3-0.1c0,0-1,0.3-1.2,0.6
					c-0.2,0.2-1,1.3-1,1.3l-1,0.8c0,0-0.7,0.6-0.8,0.9c-0.1,0.2-0.7,0.8-0.9,1.2c-0.2,0.4-0.3,0.6-0.4,1.2c0,0-0.3,1.2-0.1,1.9
					c0,0,0.2,1.2,0.6,1.7c0,0-0.8,0.1-1.3,0.4c0,0-0.8,0.1-1.3,0.4c0,0-0.9,0.5-1.5,0.7l-2.2,0.7l0.5-0.1c0,0-1.8,0.2-2.3,0.6
					c0,0-0.6,0.1-1.4,0.7c0,0-1.6,0.4-2,0.4c0,0-0.7,0.3-1.2,1.1c0,0-0.6,0.2-0.7,0.7l-1.4,0.4c0,0-1.8-0.1-2.3,0
					c-0.5,0.1-1.3,0.1-1.7,0.7l-1.4,0.7c0,0-1.7,0.8-1,1.3c0,0,1.3,1.3,1.5,2.3c0,0,0.6,2.1,0.7,3.3c0.1,1.2,0.3,3.8,0.4,4
					c0,0.1,0.3,2,0.9,3c0,0,0.1,1.2,3.9,5.5l1.3,1.2c0,0,0.1,0.5,1.2,1.2c0.1,0.2,0.9,0.2,3.1,2.8c0,0,2.9,2.7,4.5,3.2
					c1.6,0.5,4.9,1.6,5.3,1.5l1.2,0.4c0,0-0.2,0.6-0.3,0.7c0,0-0.2,0.5,0.3,0.6c0,0,0.2,0.1,0.4,0c0,0,0.3,0.1,0.4,0
					c0.1,0.1,0.1,0.2,0.4,0.1c0,0,1,0.3,1.3-0.1v-0.8l1.8-0.1l0.1-0.5h0.4l0.1,1.1c0,0-0.3,1.2,0.1,1.9l0.1,2.6c0,0,0.5,0.6,0.9,0
					c0,0,0.3,0.3,0.5,0.1c0,0,0.4,0.2,0.5-0.1c0,0,0.2,0.4,0.4,0.1c0,0,0.4,0.3,0.3-0.3c0,0-0.2-0.9-0.4-1.1l-0.1-1
					c0,0,0.4-1.6,0.1-2v-0.4c0,0,2.3,0.9,2.3,0.7l0.8,0.2c0,0,2.7,0.3,3,0.1c0.3-0.2,1.4-0.3,1.7-0.7c0,0,0.7-0.5-0.2-1.2
					c0,0-1.2-0.8-1.2-1c0,0-0.2-0.9,0.7-1.2c0,0,1.9-0.5,2.3-0.4C490.1,381.6,494.5,381.1,494.5,381.1z"/>
			</defs>
			<clipPath id="SVGID_00000143577661545848913950000006095254047839501707_">
				<use xlink:href="#SVGID_00000031190988673335353440000006466882361159281588_"  style="overflow:visible;"/>
			</clipPath>
			
				<linearGradient id="SVGID_00000129201288375176854380000000369808253908996744_" gradientUnits="userSpaceOnUse" x1="483.2134" y1="353.7171" x2="483.6799" y2="413.312">
				<stop  offset="0" style="stop-color:#F58220"/>
				<stop  offset="1" style="stop-color:#C55827"/>
			</linearGradient>
			
				<rect x="448.8" y="331.2" style="clip-path:url(#SVGID_00000143577661545848913950000006095254047839501707_);fill:url(#SVGID_00000129201288375176854380000000369808253908996744_);" width="68.9" height="59.4"/>
		</g>
		<g>
			<defs>
				<path id="SVGID_00000179646860506477442010000010061829486265801140_" d="M542.7,309.3c-0.1,0.8-0.1,1.6-0.2,2.5
					c-0.1,0-0.1,0-0.2,0c-0.3-0.1-0.5-0.3-0.8-0.4c0-0.5,0-1,0-1.5c0.3-0.4,0-0.1,0.4-0.4C542.2,309.5,542.4,309.4,542.7,309.3
					 M551.3,346c0,0.6-0.2,1.3-0.8,1.9C550.8,347.2,551.1,346.6,551.3,346z M552.9,346.3c0.1,0.2,0.1,0.4,0.2,0.6
					C552.6,346.5,552.8,346.8,552.9,346.3z M545.3,349.2c0.2,0.4,0.4,0.8,0.6,1.1c-0.4-0.1-0.8-0.1-1.1-0.2
					C544.9,349.8,545.1,349.5,545.3,349.2z M545.5,352.4c0.1,0.4,0.1,0.8,0.2,1.1c-0.5,0.5-1,1-1.5,1.5c0.1-0.8,0.3-1.6,0.4-2.5
					C544.9,352.5,545.2,352.5,545.5,352.4z M672.5,358.1c0.3,0.6,0.6,1.3,0.9,1.9c-0.7,0.3-0.2,0-0.2,0.8c-0.6-0.1-1.1-0.3-1.7-0.4
					c0-0.1,0-0.1,0-0.2C672,359.3,672,358.6,672.5,358.1z M544.9,358.4c0,1,0,2,0,3c-0.2-0.1-0.4-0.3-0.6-0.4
					c-0.1-0.6-0.1-1.1-0.2-1.7C544.4,359.1,544.7,358.7,544.9,358.4z M655,359.6c0.9,0.7,1.8,0.9,2.5,1.9c0,0.1,0,0.1,0,0.2
					c-0.1,0-0.3,0-0.4,0c-1.1,0.3-2.1,0.5-3.2,0.8c0-0.5,0-1,0-1.5c0-0.1,0-0.1,0-0.2C654.3,360.1,654.4,359.9,655,359.6z
					 M638,359.6c0.3,0.3,0.6,0.5,0.9,0.8c0.1,0.5,0.3,1,0.4,1.5c-0.3,0.2-0.5,0.4-0.8,0.6c-0.5-0.4-0.6-0.2-1.5,0c0-0.4,0-0.8,0-1.1
					C637.4,360.7,637.7,360.1,638,359.6z M558.1,360.7c0.4,0.1,0.8,0.1,1.1,0.2c-0.2,0.7-0.2,0.5-0.2,1.3c-0.4,0.1-0.9,0.1-1.3,0.2
					c-0.9-0.3-1-0.4-1.5-1.1C556.9,361.1,557.5,360.9,558.1,360.7z M672.9,361.4c-0.4,0.2-0.9,0.4-1.3,0.6
					C672.1,361.6,672,361.5,672.9,361.4z M579.3,381.3c-1.5,0.1-3,0.1-4.5,0.2c-1.5-3.7-3.8-2.8-7.2-2.3c-0.1-0.1-0.3-0.3-0.4-0.4
					c0.2-2.1,1.3-2.1,0.9-4.3c-1.2-0.5-3.2,0.1-4.3-0.9c1.1,0.2,2.2,0.2,3-0.2c-0.1-0.3-0.3-0.6-0.4-0.9c-1.3-0.3-2.3-0.3-3.4-0.9
					c0.6-3.6,0.5-6.7-1.3-9.2c7.2,1.5,14.3,3,21.5,4.5c5.2,0.9,10.3,1.8,15.5,2.6c-0.1,0-0.3,0-0.4,0c-3.9,2.9-7,4.5-9.8,8.5
					c-4.3,0.1-6.8,0.1-9.2,2.3C579.3,380.5,579.3,380.9,579.3,381.3z M657.4,362.4c-0.9,0.8-2.7,1.3-4.2,1.5c0-0.1,0-0.1,0-0.2
					C654,362.8,656,362.6,657.4,362.4z M570.2,362.6c-0.2,0.1-0.4,0.1-0.6,0.2C569.8,362.7,570,362.6,570.2,362.6z M571.9,362.8
					c2.8,0.2,5.7,0.4,8.5,0.6c8.7,0.4,17.5,0.8,26.2,1.1c-0.1,0.1-0.1,0.3-0.2,0.4c-1.1,0.6-2.3,1.1-3.4,1.7
					c-3.1-0.3-6.3-0.6-9.4-0.9c-7.3-1.1-17.5-0.1-23.2-2.8C570.9,362.8,571.4,362.8,571.9,362.8z M639.5,363
					c0.1,0.4,0.3,0.8,0.4,1.1c-0.2,0.1-0.4,0.3-0.6,0.4c-1.1,0.3-2.3,0.6-3.4,0.9c0.3-0.8,0.5-1.5,0.8-2.3
					C638.3,363.2,638.7,363.2,639.5,363z M658.2,363.3c0.1,0.1,0.1,0.3,0.2,0.4c-1.4,0.3-3,1.3-4.3,0.8
					C655.4,364.1,656.8,363.7,658.2,363.3z M653.8,364.7c-0.1,0.1-0.3,0.1-0.4,0.2C653.6,364.8,653.7,364.7,653.8,364.7z
					 M584.9,365.4c5.8,0.5,11.6,1,17.4,1.5c-0.1,0.1-0.1,0.3-0.2,0.4c-2.7,0.9-16.1-0.7-18.7-1.9
					C583.9,365.4,584.4,365.4,584.9,365.4z M592.7,367.3c-0.1,0.1-0.3,0.1-0.4,0.2C592.4,367.4,592.6,367.4,592.7,367.3z
					 M594.4,367.5c2.1,0.3,4.3,0.5,6.4,0.8c-0.1,0.1-0.1,0.3-0.2,0.4c-2.5-0.4-5-0.8-7.6-1.1C593.5,367.5,593.9,367.5,594.4,367.5z
					 M554.9,368.6c0.2,0.3,0.4,0.5,0.6,0.8c-0.8-0.4-0.6-0.2-0.8-0.8C554.8,368.6,554.9,368.6,554.9,368.6z M530.8,370.1
					c-0.3,0.3-0.6,0.6-0.9,0.9c-0.6,0-1.1,0-1.7,0c-0.1-0.3-0.1-0.5-0.2-0.8C529.1,370.5,529.6,370.3,530.8,370.1z M594.4,373.9
					c0.1,1,0.3,2,0.4,3c-0.5,0.1-1,0.1-1.5,0.2c0-0.3,0-0.6,0-0.9C593.5,375.2,593.7,374.5,594.4,373.9z M666.1,388.6
					c-1.9,0-3.8,0-5.7,0c0.1-2.8,1.6-5.2,0.6-8.1c-0.4-1.2-1.6-2.2-2.1-3.6c0.1,0,0.3,0,0.4,0c1.9-0.7,2.8-0.9,4.3-2.3
					c3.3,0.8,1.8,8.4,1.7,11.9c0.3,0.2,0.6,0.4,0.9,0.6C666.2,387.6,666.2,388.1,666.1,388.6z M537.2,375.4c-0.2,0.6,0,0.2-0.4,0.6
					c0.1-0.2,0.1-0.4,0.2-0.6C537.1,375.4,537.1,375.4,537.2,375.4z M545.1,375.8c0.1,0.6,0.1,1.3,0.2,1.9c-0.4,0-0.9,0-1.3,0
					c-0.2-0.2-0.4-0.4-0.6-0.6c0.4-0.4,0.8-0.9,1.1-1.3C544.7,375.8,544.9,375.8,545.1,375.8z M645.2,388.6c-2.1,0-4.2,0-6.2,0
					c0.2-3.6,1-8.5,1.9-11.7c0.9-0.3,1.8-0.5,2.6-0.8c0.5,1.6,1.8,3.6,1.3,6c-0.3,0.9-0.5,1.9-0.8,2.8
					C644.3,386.1,645,387,645.2,388.6z M656.7,376.9c1.7,2.9,1.8,6,3.4,7.9c-0.1,1.3-0.3,2.5-0.4,3.8c-1.3,0-2.6,0-4,0
					c-1.6-1.9-2.9-2.8-3.4-6c0.9-1.8,1.8-3.6,2.6-5.5C655.5,377.1,656.1,377,656.7,376.9z M668.2,377.1c1.4,0.6,2.8,1.3,4.2,1.9
					c0.3,3.7-1,5.4-1.5,7.7c0.3,0.6,0.5,1.1,0.8,1.7c-0.1,0.1-0.1,0.1-0.2,0.2c-0.8,0-1.6,0-2.5,0
					C667.7,385.7,666.7,380.4,668.2,377.1z M595.1,377.5c0.5,1.9,1.8,4,1.1,6.4c-1.3-0.7-3-0.8-4.7-1.3c0-0.1,0-0.1,0-0.2
					c0.6-1.6,1.1-3.1,1.7-4.7C593.9,377.6,594.5,377.6,595.1,377.5z M635.7,388.6c-0.8,0-1.6,0-2.5,0c-1.5-2.5-2.5-7.2-0.6-10.4
					c0.1,0,0.3,0,0.4,0c0.9,0,1.9,0,2.8,0c0,0.2,0,0.4,0,0.6C634.7,381.6,635.5,385.5,635.7,388.6z M588.3,378.4
					c-0.6,2.3-1,5.4-1.7,7.9c-0.1,0-0.1,0-0.2,0c-0.6-0.1-1.1-0.3-1.7-0.4c-1.5-1.1-3-4.5-2.1-6.4
					C584.6,379.2,586.5,378.8,588.3,378.4z M549.6,378.8c0.3,0.2,0.5,0.4,0.8,0.6c0,0.2,0,0.4,0,0.6c-0.5,0.4-0.5,0.5-1.1,0.8
					c0-0.5,0-1,0-1.5C549.4,379.1,549.5,378.9,549.6,378.8z M547,378.8c-0.1,0.5-0.1,1-0.2,1.5c-0.2-0.4-0.4-0.8-0.6-1.1
					C546.5,379.1,546.7,378.9,547,378.8z M556.1,379.4c0.3,0.6,0.6,1.1,0.9,1.7c-0.1,0.1-0.1,0.3-0.2,0.4c-2.1-0.1-2.9-0.4-4.3,0.2
					c0-0.4,0-0.9,0-1.3c0.1-0.1,0.1-0.3,0.2-0.4C553.8,379.8,554.9,379.6,556.1,379.4z M620.4,379.8c0.5,0.6,1,1.1,1.5,1.7
					c0.3,0.6,1.3,7.2,1.3,7.2c-1.4,0-2.8,0-4.2,0C619.6,385.7,620,382.7,620.4,379.8z M615.5,379.8c-0.5,2.7,0.2,6.3-0.6,9.1
					c-0.3,0-0.5,0-0.8,0c-1.3-2.2-4.3-4.4-3.2-8.3C612.5,380.3,614,380,615.5,379.8z M543.2,379.9c0.9,0.6,1.9,1.1,2.8,1.7
					c-1-0.4-2.7-0.8-3.2-1.7C543,379.9,543.1,379.9,543.2,379.9z M559.6,388.6c-0.1-1.8-0.5-5.7,0.8-6.2c0.5-0.2,0-0.2,0.6,0
					c0.1-1,0.1-1.1,0.8-1.5c0.4-0.1,0.9-0.3,1.3-0.4c0.2,0.5,0.4,1,0.6,1.5c2.1,1.6,4.9,0.9,7.2,0c0.9,2.8,7,3.1,9.8,1.9
					c0.2,1.8,0.1,2.7,0.8,4.5c-0.1,0.1-0.1,0.3-0.2,0.4C574,388.8,566.8,388.7,559.6,388.6z M608.4,388.6c-0.9,0-1.8,0-2.6,0
					c0-0.1,0-0.3,0-0.4c-1.3-2.9,0.9-5.6,1.7-7.2c0.1,0,0.1,0,0.2,0C607.9,383.1,608.2,385.8,608.4,388.6z M647.2,388.6
					c-0.3-3.1-0.4-5.6,1.5-7.4c0.2,3.9,1,4.9,2.8,7.4C650.1,388.6,648.7,388.6,647.2,388.6z M543.4,381.5c-0.2,0.1-0.4,0.1-0.6,0.2
					C543,381.6,543.2,381.5,543.4,381.5z M544,381.6c0.8,0.3,1.5,0.5,2.3,0.8c0,0.1,0,0.3,0,0.4c-0.3,0-0.6,0-0.9,0
					C544.7,382.6,543.1,382.1,544,381.6z M556.8,382.6c0,2-0.8,4.1-1.9,5.1c-0.1-0.1-0.3-0.1-0.4-0.2c-0.7-1.8-2-2-2.1-4.3
					C554.7,383.6,554.6,383,556.8,382.6z M578,382.8c-0.6,0-1.3,0-1.9,0C576.7,382.8,577.3,382.8,578,382.8z M541.3,382.8
					c-0.3,0.4,0,0.1-0.4,0.4C541.1,383,541.2,382.9,541.3,382.8z M603.4,388.6c-0.6,0-1.3,0-1.9,0c-0.1-0.1-0.1-0.3-0.2-0.4
					c-0.1-0.7-0.1-1.4-0.2-2.1c0.6-0.9,1.3-1.8,1.9-2.6c0,0.1,0,0.3,0,0.4C603.2,385.5,603.3,387.1,603.4,388.6z M625.3,388.6
					c-0.1-2.3,0.2-3.9,1.3-4.9c-0.8,2.3-0.1,3.3,1.1,4.9C627,388.6,626.2,388.6,625.3,388.6z M609.3,388.6c-0.1-1.4-0.1-2.9-0.2-4.3
					c0,0.1,0,0.3,0,0.4c0.7,1.3,1.4,2.6,2.1,4C610.6,388.6,609.9,388.6,609.3,388.6z M596.3,384.5c-0.2,1.8-0.8,2.3-0.4,4.2
					c-1.8,0-3.5,0-5.3,0c0.3-1.4,0.6-2.9,0.9-4.3C593.1,384.4,594.7,384.4,596.3,384.5z M541.3,384.5c0,0.8,0,1.5,0,2.3
					c-0.1,0-0.1,0-0.2,0c0-0.1,0-0.3,0-0.4c-0.1-0.6-0.3-1.3-0.4-1.9C541,384.5,541.1,384.5,541.3,384.5z M543.4,384.7
					c0.5,0.1,1,0.3,1.5,0.4c-0.5,0.9-1,1.4-1.9,1.9c-0.1-0.4-0.1-0.9-0.2-1.3c-0.1,0-0.1,0-0.2,0c0.1,0.9,0.2,1.1-0.2,1.7
					C542.4,385.8,542.6,385.2,543.4,384.7z M523.2,384.7c0.5,0.2,1,0.4,1.5,0.6c-0.1,1.2-0.1,2.4-0.2,3.6c-1.4,0.1-2.8,0.1-4.2,0.2
					c-0.1-0.1-0.1-0.1-0.2-0.2c0-0.3,0-0.5,0-0.8c0.8-1,0.7-2.5,1.3-3C522.1,384.9,522.6,384.8,523.2,384.7z M550.2,384.9
					c0.2,0.3,0.4,0.5,0.6,0.8c0.1,1.2,0.1,2.5-0.4,3c-0.3-1.2-0.5-2.4-0.8-3.6C549.8,385,550,384.9,550.2,384.9z M537.9,385
					c0.3,0.9,0.3,2.2,0.6,3c0.1,0,0.1,0,0.2,0c0-0.4,0-0.8,0-1.1c0.1,0.1,0.3,0.1,0.4,0.2c0.1,0.4,0.1,0.9,0.2,1.3
					c-0.1,0.1-0.3,0.1-0.4,0.2c-1.4-0.2-3-0.6-4.3-1.1c0.4-1.4,1.2-1.7,2.1-2.5C537.1,385,537.5,385,537.9,385z M548.1,385.2
					c-0.2,1.2-0.4,2.4-0.6,3.6c-0.1-0.1-0.3-0.1-0.4-0.2c0-0.1,0-0.1,0-0.2C547.6,387.2,547.3,386,548.1,385.2z M542.1,385.4
					c-0.1,0.8-0.1,1.5-0.2,2.3c-0.1,0-0.1,0-0.2,0c0-0.8,0-1.5,0-2.3C541.8,385.4,542,385.4,542.1,385.4z M526.8,386.2
					c0.4,0.4,0.9,0.9,1.3,1.3c0.9-0.2,1.8-0.4,2.6-0.6c0.4,0.6,0.8,1.1,1.1,1.7c-0.1,0-0.3,0-0.4,0c-1.8,0.1-3.5,0.1-5.3,0.2
					c0.1-0.2,0.1-0.4,0.2-0.6C526.2,387.5,526.2,386.7,526.8,386.2z M673.7,386.9c0.1,0.6,0.1,1.1,0.2,1.7c-0.4,0-0.8,0-1.1,0
					c0-0.1,0-0.1,0-0.2C673,387.9,673.4,387.4,673.7,386.9z M547,387.1c-0.1,0.6-0.1,1.1-0.2,1.7c-0.5,0-1,0-1.5,0
					C545.9,388.2,546.4,387.8,547,387.1z M583.2,387.3c0.8,0.4,1.6,0.9,2.5,1.3c-1.1,0-2.3,0-3.4,0c0.1-0.3,0.1-0.5,0.2-0.8
					C582.7,387.7,583,387.5,583.2,387.3z M598.5,387.5c0.1,0.4,0.3,0.8,0.4,1.1c-0.3,0-0.5,0-0.8,0c0.1-0.4,0.1-0.8,0.2-1.1
					C598.4,387.5,598.5,387.5,598.5,387.5z M552.5,388.6c0-0.4,0-0.8,0-1.1c0.8,0.4,1.3,0.6,1.7,1.3
					C553.6,388.8,553,388.7,552.5,388.6z M523.2,357.9l-0.1-1.2l2.1,3.8l0,0l0.4,1c-0.3-0.1-0.3-0.2-0.4-0.2L523.2,357.9z
					 M514.6,355l0.3,1.2l-1.2-0.8l-0.2,0.3l1.4,0.9l2.1,3.8c0.1,1.1-0.4,2.1,0.3,3.3c0.8,0.2,1.2,0.4,2.1,0.2
					c-0.6,0.7-1.5,1.6-0.9,2.8c0.3,0.4,0.6,0.8,0.9,1.1c0.4,0,0.8,0,1.1,0c0.3-0.4,0.5-0.9,0.8-1.3c0.2,0.1,0.4,0.3,0.6,0.4
					c0.4,2.2,1.4,3.1,2.8,4.7c0.2,4.4-1.8,6.4-5.9,5.7c-0.2-1.3-0.6-1.7-2.1-1.7c-1.4,1-3.7,0.8-5.7,1.9c0.1,0.6,0.1,1.3,0.2,1.9
					c-1.9,0.5-2.9,2-2.8,4.5c0.4,0.7,0.7,1.1,1.5,1.5c0.8,0.4,1.3,0.2,2.3,0c0.1-0.4,0.3-0.8,0.4-1.1c1.6,0.1,3.3,0.3,4.9,0.4
					c-0.1,1.7,0.2,2.5,1.3,3c0.4,0.1,0.8,0.1,1.1,0.2c0,0.4,0,0.8,0,1.1c-0.1-0.1-0.3-0.1-0.4-0.2c-5.9,0-11.8,0-17.7,0
					c0,2.6,0,0,0,2.6c62.9,0,125.9,0,188.8,0c0-2.6,0-0.1,0-2.8c-5.2,0-10.4,0-15.7,0c0.3-2.4,0.5-4.8,0.8-7.2
					c-0.2-0.1-0.4-0.1-0.6-0.2c-0.1,0-0.1,0-0.2,0c-0.2,0.6-0.4,1.3-0.6,1.9c0.1-1.7,0.3-3.4,0.4-5.1c-5.4-3.9-3.2-3.1-2.6-8.5
					c0.2-1.9-0.7-4.1-0.6-6.6c1.5-0.2,4.4,0.1,5.1-1.1c1.3-2,1.4-9.9,0.8-12.3c-0.3,0.1-0.5,0.1-0.8,0.2c-0.1,0.4-0.3,0.8-0.4,1.1
					c-0.9-0.4-0.8-1-1.3-1.7c-0.1,0.1-0.3,0.1-0.4,0.2c-0.1,0.4-0.3,0.8-0.4,1.1c-8.8-1.1-7.4,8.5-12.8,11.1c0-0.1,0-0.3,0-0.4
					c-1.4-3-1.6-8.1-4-10.2c-0.1,0-0.1,0-0.2,0c-0.1,0.6-0.3,1.1-0.4,1.7c-2.4-1.3-9.9,0.2-11.3,3c-1,1.9-1.2,4.7-2.8,5.9
					c0.5-2,0-9.6-1.1-10.9c-0.1-0.1-0.1-0.3-0.2-0.4c-0.2,0.1-0.4,0.3-0.6,0.4c-0.1,0.4-0.1,0.9-0.2,1.3c-0.3,0-0.5,0-0.8,0
					c-0.1-0.4-0.3-0.8-0.4-1.1c-2,0.6-4.2,1.5-6.2,0.9c-0.1,0.5-0.3,1-0.4,1.5c-2,0.1-5.2,2.3-5.9,3.8c-0.7-0.8-1.2-1.2-2.6-1.3
					c0.2,1,0.8,1.5,1.3,2.3c-2.7,2-3.7,1.2-5.7,4c-7.2,0.3-14.6,2.9-23.8,1.5c-11.3-0.8-22.5-1.6-33.8-2.5c0.2-0.7,0.4-1.4,0.6-2.1
					c-0.3,0.1-0.6,0.1-0.9,0.2c0-0.6,0-1.3,0-1.9c-0.1-0.1-0.3-0.1-0.4-0.2c-0.7,0.7-0.7,1.3-1.7,1.7c-0.8,0.4-2.9,0.3-3.2,0
					c1-1.7,3.4-1,4.9-2.1c2.9-2,2.2-6.5,6-8.7c0-0.3,0-0.6,0-0.9c-0.9,0.3-1.8,0.6-2.6,0.9c-0.1-0.4-0.1-0.8-0.2-1.1
					c-0.1,0.1-0.3,0.1-0.4,0.2c-0.3,2.9-2.6,6.1-4.3,7.7c-8,0-2.3-3.8-4.9-7.9c-1,0-0.9,0.1-1.5-0.2c-0.1-0.6-0.3-1.1-0.4-1.7
					c-0.3,0-0.6,0-0.9,0c-0.2-0.4-0.4-0.8-0.6-1.1c-0.1,0-0.1,0-0.2,0c-0.6,1.4-1.4,1.7-1.5,3.8c-1.1,0-1.4,0.2-2.1,0.6
					c-0.4-2.6-1.4-4.8-3.8-5.7c0.1-4.3,0.1-7.2,0.2-11.5c3.8,0.3,8.8-0.1,11.3-2.1c-0.1-0.8-0.1-1.6-0.2-2.5
					c-2.3-2.9-9-3.1-11.9-4.5c-0.4-5.4-0.5-10.4,0-14.7c-0.1-0.1-0.1-0.1-0.2-0.2c-2.4,0.2-6.3,0.7-7.9,1.9
					c-0.4,0.7-0.8,1.4-1.1,2.1c-1.8,0.6-3.6,1.1-5.5,1.7c0.3,0.4,0.6,0.8,0.9,1.1c1.4,0.5,2.9,1,4.3,1.5c0.5-1.3,7.6-2,8.3-1.1
					c-0.1,1.2,0.9,8.5-1.5,7.9c-3.2,1.3-6.2,2-10.4,3c-0.4,0.8-0.7,1.4-0.4,2.5c-0.4,3.1,8.4,3.1,11.7,3.4c0,0.1,0,0.1,0,0.2
					c-0.1,1.3-0.1,1.1-0.2,2.5c-0.7-0.4-0.8-0.5-1.7-0.4c-3.1,3.6-2.8,2.9-1.7,7.7c-0.2,0.4-0.4,0.8-0.6,1.1
					c-3.3,0.3-12.1,9.4-9.8,14.2c0.1,0,0.1,0,0.2,0c0.5-0.1,1-0.1,1.5-0.2c-0.3-0.8-0.6-1.5-0.9-2.3c1.7-2.8,3.4-5.9,7-6.8
					c0,0.4,0,0.9,0,1.3c-0.7,3,0.5,10.3-0.4,12.6c-1.4,1.1-2.8,2.1-4.2,3.2c-0.6-0.6-1.3-1.3-1.9-1.9c-2.4-0.4-2.7-1-3.9-2.2
					l-2.5-4.7l-0.2-1.5l-0.5,0.1l0.3,1.2l-1.2-0.8l-0.2,0.3l1.4,0.9l0.3,0.6l-0.3,0.1l0.3,1.2l-1.2-0.8l-0.2,0.3l1.4,0.9l2.7,5.1
					l-0.4,1.7c-0.1-0.1-0.3-0.1-0.4-0.2c-0.6-1.3-2.9-5-4.3-5.5c-0.9-0.3-1.7,0-2.4-0.1l-3.2-5.9l-0.2-1.5l-0.5,0.1l0.3,1.2
					l-1.2-0.8l-0.2,0.3l1.4,0.9l2.9,5.5c-0.2,0.2-0.4,0.4-0.6,0.5l-1.6-3l-0.2-1.5L514.6,355z M557.8,388.3c0,0.1,0,0.3,0,0.4
					C557.8,388.5,557.8,388.4,557.8,388.3z"/>
			</defs>
			<clipPath id="SVGID_00000072977839577686805590000016883610059352372411_">
				<use xlink:href="#SVGID_00000179646860506477442010000010061829486265801140_"  style="overflow:visible;"/>
			</clipPath>
			
				<linearGradient id="SVGID_00000048465894619487004210000009723701325439228558_" gradientUnits="userSpaceOnUse" x1="596.1281" y1="352.3517" x2="597.4215" y2="437.7207">
				<stop  offset="0" style="stop-color:#F58220"/>
				<stop  offset="1" style="stop-color:#C55827"/>
			</linearGradient>
			
				<rect x="501.7" y="307.1" style="clip-path:url(#SVGID_00000072977839577686805590000016883610059352372411_);fill:url(#SVGID_00000048465894619487004210000009723701325439228558_);" width="188.8" height="84.3"/>
		</g>
		<g>
			<defs>
				<path id="SVGID_00000098913416304031814840000003709078729435195558_" d="M189.4,338.6c1.1,1.1,0.5-0.3,1,1.6
					c0,0.1,0.6,1.7,0.7,1.9c0.3,0.7,2.2,1.9,2.8,2.5c-1.5,3.1-0.5,1.9-1,3.3c-1.5-1.4-1-3.6-4.1-3.9c-4.1-0.4-4.7,5.8-1.8,4.3
					c0.7-0.4,0.5-0.6,0.9-1c0.7,2.6,3.2,1.2,4,3.1c0,1-3.2,1.7-3.3,1.7l-2.7-1.6c-0.3-0.5-0.3-1-0.8-1.4c-0.5-0.5-0.9-0.3-1.6-0.6
					c-1.5-0.7-1.6-0.6-2.8,0.4c-0.8,0.6-1.6,1.9-1.1,3.2c1,0.9,0.9,0.4,2.2,0.7l4.1,1.9c0.6,0.2,1.8,0.2,2.7,0.4
					c1.9,0.4,3.1,1.1,4.7,0.1c1.5-0.9,2-2.5,3-3c1,5.1,0.4,3.3,0.5,5.9c0.1,1.6-0.4,2.9-1,4.2c-0.3,0.7-0.3,0.4-0.9,0.9
					c-0.7,0.6-0.7,1.2-1.3,2.1c-0.7,1.1-1.9,2.2-3,4.1c-0.7,1.1-0.6,1.3-1.5,2c-1.6,1.2-1.1,2.9-2.3,4.7c-2.1,3.2-1.4,4.6-3.6,6.9
					c-0.8,0.8-0.4,1.3-1.6,2.1c-1.6,1.2-4.6,1.1-5.3,1.9c-0.2,1.8,2,1.7,3.9,1.9c1.5,0.1,3.8,1,5.1-0.1c0.4-1.1,0-2.4,0.2-3.2
					c0.6-2.5,4.2-5.5,4.9-6.8c1.5-2.6,0.1-3.1,2.8-4.8c2.2-1.4,3.5-0.6,6.4,0c0.4-0.4,0.3-0.3,0.7-0.7c1,1,0.5,1.8,2.1,3.1
					c0.4,0.3,1,0.7,1.5,1.2c0.5,0.5,0.8,1.1,1.3,1.6c1,1.2,4.7,4,4.8,6.2c-0.9,0.4-1,0.1-1.9,0.7c0.2,1.6,1.5,1.2,3,1.8
					c3.8,1.5,4.4-0.2,3.1-2.1c-0.6-0.9-0.6-1.2-1.1-2c-0.7-1.2-0.7-0.1-1.5-1.6c-1-1.9-1.9-4.3-3.3-5.8c-1.1-1.2-2.7-1.6-3-3.3
					l2,0.5c0.1-1.4-0.2-2.8-0.1-4c0.1-1.1,0.4-2.2,0.5-3.3c0.2-2.1,0.7-5.3-0.3-6.9c-1.3-2-1.7-2.9-1.4-5.8c0.2-2.1,0.3-5.7-0.2-7.6
					c-0.6-2.3-1.3-3.8-3.3-4.3c-1.5-0.4-4.1,0.2-4.7-3.2c-0.9-4.9-4.5-4.2-6.7-2.4C190.1,336.6,189.5,337.1,189.4,338.6"/>
			</defs>
			<clipPath id="SVGID_00000111893429784919826570000000518854016553595781_">
				<use xlink:href="#SVGID_00000098913416304031814840000003709078729435195558_"  style="overflow:visible;"/>
			</clipPath>
			
				<linearGradient id="SVGID_00000079451538228030338450000012573232244735984001_" gradientUnits="userSpaceOnUse" x1="195.8468" y1="355.3018" x2="195.5818" y2="410.5499">
				<stop  offset="0" style="stop-color:#F58220"/>
				<stop  offset="1" style="stop-color:#C55827"/>
			</linearGradient>
			
				<rect x="176.2" y="333.5" style="clip-path:url(#SVGID_00000111893429784919826570000000518854016553595781_);fill:url(#SVGID_00000079451538228030338450000012573232244735984001_);" width="39.3" height="56.2"/>
		</g>
		<g>
			<defs>
				<path id="SVGID_00000119081331054242680260000010824509880807776182_" d="M352.8,343.5c0.1,0.8,0.4,1.3,0.2,1.7
					c-0.1,0.2-0.3-0.2,0.1,1c0,0.1,0.2,0.5,0.2,0.6c0,0.4-0.2,0.3-0.5,1.1c-0.2,0.4-0.2,0.3-0.5,0.4c0.1,0.5,0.4,1.2,0.3,1.7
					c-0.2,0.3-0.3,0.2-0.5,0.4c-0.2,0.2,0.1,0.1-0.2,0.6c-0.5,1,0.1,1.5-1.1,1.6c-0.9,0.1-1.4-0.7-2.3-1.3c-1.1,0.9-1.7,2.6-1.9,2.8
					c-0.3,0.4-0.7,0.3-1.1,0.5c-0.1,0.3-0.2,0.6-0.2,0.9c-0.1,0.5,0,0.6-0.5,0.6l-0.4,1.4c1.4,1.9,1.4,3.4,2,4.6
					c0.4,0.7,0.6,0.7,0.6,1.7c0.3-0.1,0.7-0.2,0.9-0.3c0.4-0.2,0.2-0.4,0.5-0.8c0.2-0.4,1-0.8,1.4-1.2c0.1-0.4,0.1-0.8,0.1-1.2
					c0-0.5,0.3-0.7,0.4-1.2c-0.3,0.2-0.6,0.9-0.7,1.2c-0.4,0.9-0.2,1.1-0.7,1l-0.1-0.7c-0.1,0.2-0.3,0.4-0.6,0.3
					c-0.1-0.6,0.5-1.5,0.5-2.1c-0.1,0.2-0.9,1.1-1.4,1c0-0.5,0.3-0.6,0.8-1.3c0.5-0.6,0.6-1,0.9-1.3c0.3-0.4,1.6-1,2.6-1.7
					c1.3-0.9,1.3-1,3.2-1c3-0.1,4.2-0.5,6.9-1.6c1.4-0.6,1-1.3,1.5-2.7c0.3-0.9,1.2-2.7,1.2-3c0.3-1.3-0.4-1,0.1-3.9
					c-1.1,0-1.1,1.2-1.7,1.7c-0.5,0.1-0.6-0.1-0.9-0.3c-0.4-0.3-0.6-0.1-1.1,0l-0.1-0.4l-0.6,0.1c-0.1-0.3-0.1-0.6-0.5-0.6
					c-0.3,0-0.4,0.2-1,0.1c-0.2-0.5-0.4-1-0.7-1.4c-4.5,0.3-3.4-0.6-5.1-1.1c-0.4-0.1-1-0.2-1.4-0.2c-0.7-0.1-0.7,0.5-0.4,0.8
					c0.2,0.2,0.3,0.1,0.4,0.3l0.2,0.2c0,0,0,0,0,0c0.7,0.4,0.3,0.1,0.8,0.6C352.7,343.6,352.5,343.4,352.8,343.5 M318.1,384.6
					c0.1,0.1,0.2,0.3,0.3,0.5c0.1,0.1,0.2,0.2,0.4,0.3c0.2,0.2,0.5,0.5,0.9,0.6c0.4,0,2.4-0.1,2.7-0.3c0.2-0.2,0.4-0.7,0.3-1
					c-0.3-0.7-1,0.1-0.5-1.7c0.1-0.3,0.2-0.6,0.1-0.8l-0.1-0.2c0,0,0,0,0,0c0.6-0.5,0.2-0.9,0.6-1.6c0.7-1.3,1.6-1.8,2.6-2.8
					c0.9-0.8,2-1.7,2.4-3c0.3-1.2,2.2-2.7,3.2-3.2c0.4-0.2,1-0.7,1.2-0.9c1-1.2,0.6-1.8,0.9-3.4c0.2-1.1,0.5-2.5,0.9-3.5
					c0.7-2,0.9-1.4,0.8-3.3c0.3,0.2,0.5,0.4,0.9,0.5c0.3,0.1,0.6,0.2,1,0.3c0.1,0.9-0.1,2.5,0,3.5c0,0.9,0.2,2.2,0.8,2.7
					c0.4,0,1-0.1,1.4-0.1c1,0,1.9,0.2,2.9,0.2c0.5,0,1-0.1,1.5,0c0.1,1.1-1.4,3.7,0.1,6.4c0.9,1.7,1.3,4.1,1.5,6.1
					c0.3,2.1-0.4,0.8-0.1,2.1c0.2,0.9-0.3,1.3-0.4,2c1.5,1.1,2.3-0.1,5.2,0.4c0.8,0.1,4.6,0.3,4.7-1c-0.3-0.2-0.2-0.1-0.4-0.4
					c-0.5-0.7-0.8,0-1.8-0.1c-1.4-0.2-0.8-1.2-1.7-1.4c-0.6-0.2-1.2-0.2-1.7-0.6c-0.3-0.2-0.1-0.1-0.2-0.4c-0.1-0.4-0.6-0.5-0.5-1.1
					c0.1-0.4-0.1-0.6-0.1-1.2c-0.1-2.1,0-4.2,0-6.2c0-1.1-0.1-1.7-0.4-2.7c-0.2-0.6-0.4-2.2,0-2.7c0.4-0.3,1.6-0.1,2.2-0.1
					c0.7,0.1,1.3,0.3,1.9,0.5c0.8,0.3,1-0.2,1.5-0.6l1-0.7c0.3-0.2,0.1,0,0.3-0.3l-0.8,0.1l0-0.4c-0.8,0-0.6,0.6-1.1,0.8
					c-0.5,0.3-1.1-0.1-1.3-0.4c0.3-0.1,0.5-0.1,0.7-0.2c-0.3-0.7-1.3-0.2-1.7-0.9c-0.4-0.9-0.7-1.2-0.1-1.7c0.7-0.7,0.5-0.9,0.6-2
					c0.1-1.8,1.6-1.6,2.6-2.5c0.7-0.6,0.4-0.8,1.7-0.8c2.8,0,3,0.6,7-0.1c0.7-0.1,1.3-0.3,2-0.5c1.3-0.3,0.8-0.1,1.4-1.2
					c0.3-0.5,0.7-1,1-1.5c1-1.5,1.1-1.6,1.9-3.2c0.6-1.3,1-2.2,1.2-3.9c1.3,0.7,1.9,0.7,3.5,0.8c0.6,0.1,1.3,0.1,1.9,0.2
					c0.8,0.2,0.7,0.5,1.1,1c0.8,1,2.8,0.6,3.7,2.7c0.7,1.6,1.5,0.6-0.4,2.5c-0.9,0.9-2.5,2.6-3.3,3.7c-1.7,2.3-0.9,1.7-1.5,3.2
					c-0.4,1-0.9,2.4-1.5,3.1c-0.3,0.3-1,0.8-0.9,1.4c0,0.5,0.3,0.9,0.4,1.9c0,0.8,0.8,1.6,0.8,3.8c0,1.5,0.1,2.9,0.3,4.4
					c0.1,1,0.4,3.3,0.3,4.2c-0.3,0.1-0.7,0.1-0.8,0.4c-0.3,0.4-0.1,1.4-0.6,1.7c-0.2,0.1-0.3,0-0.6,0.2c-0.3,0.2-0.2,0.5-0.7,0.8
					c-0.6,0.4-0.6,0.1-1.1,0.3c-0.4,0.2-0.5,0.4-1,0.5c-0.4,0.1-0.9,0.2-1.2,0.3c-0.9,0.4-1.4,1-0.3,1.5c1.3,0.6,4.1,0.1,5.5-0.1
					c1-0.1,1.7-0.2,2.7,0c0.7,0.1,2.1,0.6,2.6,0c0.3-0.7-0.5-1.9-0.5-2.7c0-1.3-0.2-0.5-0.4-1.2c-0.1-0.3,0-0.8-0.2-1l-0.3-0.2
					c0.1-2.3,0.2-4.5,0.4-6.7c0.1-1.1,0.2-2.3,0.2-3.4c0-0.8-0.4-2.5-0.2-3.2c0.1-0.2,0.2-0.2,0.4-0.4c0.2-0.2,0.2-0.2,0.4-0.4
					c1-0.7,1.4-1.7,2.4-2.2c-0.1,1.1-0.3,2.2-0.2,3.3c0,0.5,0,1.1,0.2,1.5l1.5,2c0.3,0.4,0.6,0.6,0.9,0.9c0.4,0.5,0.8,1.6,1.2,2.3
					c0.8,1.5,1.4,3.3,2.1,4.9c0.4,0.8,0.7,1.5,1.1,2.4c0.2,0.4,0.3,0.8,0.5,1.3c0.3,0.8,0.3,0.5,0,1.3l-0.7,0c0,0.4,0.2,0.4,0.4,0.8
					c0.2,0.6,0,0.5-0.2,0.8c0.4,0.7-0.2,1.1-0.7,1.5l-0.9,0.9c-0.6,0.7-0.6,0.7-1.8,1.1c-0.9,0.3-1.1,0.1-1.1,1.2h5.8
					c0.6-0.3,2.2-0.3,3-0.4c0.5-0.1,1-0.2,1.5-0.3c0.7-0.2,0.6-0.3,1-0.7v-0.4c-0.1-0.2-0.3-0.5-0.4-0.7c-0.1-0.2-0.3-0.4-0.4-0.6
					c-0.8-1.2-0.8-2.4-1.2-3.2c-0.5-1-0.6-0.6-0.9-1.4c-0.8-2.1-0.9-7-2.6-10.6c-0.5-1-0.8-1.2-1.4-1.9c-0.9-1.2-1.3-1.2-1.1-2
					c0.4-1.1,1.9-3,2.1-4.4c0.2-0.1,0.3,0,0.4-0.5c0.3-1.6,0.7-3.5,1.2-5c0.5-1.8,1.6-3.4,1.6-5.6c0-0.8-0.6-2.1-0.9-2.7
					c-0.6-1.1-0.6-0.6-1.7-1.9c-0.3-0.3-0.5-0.7-0.8-1c-0.5-0.7-1.7-2.2-2.4-2.9c-0.8-0.9-0.6-0.8-1.8-1.8l-1-0.8
					c-1.1-0.8-4.7-2.5-6-2.9c-1.6-0.6-4.2-0.9-6-1.2c-0.9-0.2-2.3-0.4-3.2-0.1c-0.4,0.1-0.8,0.5-1.1,0.6c-0.6,0.3-0.8,0.3-1.5,0.3
					c0,0,0,0,0,0l0.2-0.2l-0.3-0.2l0.3-0.2c-0.5-0.2-0.2-0.1-0.2-0.2l-0.2-0.2c0.1,0,0.1,0,0.2-0.1c0.1-0.1,0.1-0.1,0.1-0.1
					c-1.2-0.6-1.4-0.4-2.4-1.9c-1.6-2.5-1.7-1-2.4-2c-0.3,0.1,0,0-0.3,0.2c-0.3,0.1-1.3,0.4-1.7-0.3h-0.1c-0.4,1.1-0.9,0.5-1.1,0.6
					c-0.2,0.2-0.2,0.2-0.5,0.4c-0.2,0.1-0.4,0.2-0.6,0.3c-0.1,0.1-0.7,1-0.7,1.1c-0.2,0.6,0.5,0.8-0.2,1.3c-0.5,0.3-0.5,0.5-0.7,0.9
					l-0.1,0.1c-1.1-0.1-1.7-0.1-2.7-0.1c-1.5,0-1.2-0.1-2,0.7c-0.2,0.2-1.3,1.3-1.5,1.3c-0.2,0.1-0.5,0-0.7,0
					c-0.2,0-0.3,0.1-0.5,0.2c-0.5,0.1-0.8,0-1.3,0.1c-0.2,0.3-0.4,0.9-0.6,1.2c-0.2,0.4-0.6,0.7-0.6,1.3l0.6-0.1l-1,1.3
					c-0.6,0.8-0.4,0.5-1.5,0.7c-1.9,0.4-2.5,2.2-4,2.5c-0.8,0.2-0.9,0.2-1.5,0.6c-1.1,0.7-3.1,1.5-4.4,2.1c-1,0.5-0.5,0.7-2.5,1.9
					c-0.5,0.3-1,0.4-1.4,0.8c-0.7,0.6-1.3,1.5-1.5,2.8c-0.1,0.9,0,1.4,0,2.2c0,1.1-0.6,1.2-0.3,3.9c0.2,1.2-0.3,3.3-0.2,3.7
					c0.3,0.7,0.2,1.5,0.2,2.3c0,0.8-0.2,1.2-0.4,1.8c-0.2,0.8-0.3,0.9-0.9,1.2c-5.1,3.4-3.9,5.3-5.9,9.3c-0.3,0.6-0.5,0.8-0.9,1.3
					c-0.4,0.5-0.2,1.1-0.4,1.8c-0.2,0.5-0.4,0.9-0.7,1.4V384.6z"/>
			</defs>
			<clipPath id="SVGID_00000154387320356427658270000007468610162780534460_">
				<use xlink:href="#SVGID_00000119081331054242680260000010824509880807776182_"  style="overflow:visible;"/>
			</clipPath>
			
				<linearGradient id="SVGID_00000101824727943597619870000008130527720032886954_" gradientUnits="userSpaceOnUse" x1="356.2137" y1="354.7561" x2="355.6836" y2="412.7925">
				<stop  offset="0" style="stop-color:#F58220"/>
				<stop  offset="1" style="stop-color:#C55827"/>
			</linearGradient>
			
				<rect x="318.1" y="332.6" style="clip-path:url(#SVGID_00000154387320356427658270000007468610162780534460_);fill:url(#SVGID_00000101824727943597619870000008130527720032886954_);" width="76" height="57.7"/>
		</g>
		<g>
			<defs>
				<path id="SVGID_00000018213027301372220140000006138712301030801555_" d="M282.7,361.6c0,0.2-0.1,0.5-0.1,0.7l2.5-0.4
					c-0.1-0.6-0.7-2.2-0.9-3.6c-0.3-1.3-0.4-2.6-0.6-4l-1,3.4C282.2,359.7,282.7,360.7,282.7,361.6 M301.1,355.1l1.5-1.3
					c0.6-0.6,0.9-1,0.2-1.8c-0.9-1-1.2-2.6-1.7-4.1c-0.6,1.2-0.3,0.5-0.5,1.8c-0.1,0.7-0.3,1.3-0.5,2c-0.4,1.5-0.1,0.6,0.2,1.7
					C300.8,355,300.5,353.6,301.1,355.1z M293.1,337.5c-0.4,0-0.9,0.2-1.2,0.4c-0.6,0.4-0.3,0.4-1.1,0.6c-3,0.9-4,1.4-6,3.8
					l-2.7,3.8c-0.7,1-1.4,2-1.8,3.1l-0.4,1.3c0.3,0.3,0.6,0.5,0.9,0.9c-0.3,1-0.8,1.6-0.8,2.8c0,1.2,0.1,2.2,0.3,3.3
					c0.5,3-0.7,3.4-1.4,5.6c-3.6,0.5-7.4,1.5-10.8,2.4c-1.8,0.4-3.5,0.9-5.2,1.5c-0.7,0.2-0.9,0-0.6-0.7c0.2-0.3,0.7-0.5,0.4-1.1
					c-0.1-0.4-0.6-0.6-1-0.4c-1.9,0.6-2.4,4.4,0.6,4.2c1.2-0.1,9.2-2.3,10.6-2.6c1.6-0.4,3.8-1.1,5.4-1.3c0,0.3,0,0.6,0.2,0.8
					c0.3-0.2,0.3-0.4,0.4-1l0.7-0.2c0.4,1,1.7,1,2,0.4c0,0,0,0,0,0c0,0,0,0,0,0c0,0,0,0,0,0l1.4,0c-0.3-0.7-0.7-0.1-1.3-0.7
					c0.9-0.3,0.8,0.5,1.8,0.1c-0.1-0.4-0.1-0.3-0.5-0.4l2.2-0.5c0.2,0.2,0.2,0.3,0.3,0.5c0.4,0.5,0.4,0.1,0.6,0.8
					c0.1,0.2,0.1,0.4,0.2,0.6c0.3,0.8,0.6,1.4,0.9,2.1c-1,1-0.9,2.2-1.2,3.6c-0.3,1.5-0.8,2.5-0.7,4.1c0.2,3.1,2.7,4,3.3,2.1
					c0.2-0.6,0.3-1.3,0.6-1.9c0.8,0.4,0.8,1,2.5,1.8c1.2,0.6,2.4,0.2,3-0.6c1.6-2.1-0.6-4.6-0.7-6.8c0.4-0.2,1.3-0.9,1.5-1.5
					c0.2-0.7-0.5-1.4-0.3-2.6c0.6,0.3,1.6,1.3,2,1.9c0.3,0.6,0,0.5,0.8,0.5c0.4,1.2,1.2,2.4,1.5,3.5c0.2,0.8,0.3,1.2,0.6,1.8
					c0.1,0.2,0.4,0.6,0.5,0.7c1.2,1.2,0.4,2.2,1.5,4.8c0.5,1.2,1.1,2.2,1.6,3.4c0.2,0.6,0.5,1.2,0.6,1.8c0.2,0.8,0.1,1.3,0.6,2
					c0.5,0.7-0.1,0.6,1.3,2.4c0.2,0.2,0.4,0.5,0.5,0.7c0.7,0.8,3.1,1,3.7,0.1c0.7-1.1-0.9-2.9-1.4-3.2c0.7-1.5-0.4-1.2-1.2-1.8
					c-1.3-0.9-0.5-8-2.8-10.9c-0.8-1-0.8-1-1.3-2.2c-0.4-1-0.8-1.1-1.1-2.4c-0.2-0.8-0.4-2.2-0.3-3.1c0.8-0.6,1-0.3,0.6-1.5
					c-0.5-1.3-0.9-2.8-1.6-3.9c-0.5-0.6-0.4-1.4-0.3-2.3c1.1-0.4,2.7-1.2,3.7-1.8c0.6-0.4,1.3-0.5,1.4-1.2c0.2-0.8,0.1-1.7,0-2.4
					c0.7-0.6,0.9-0.1,0.7-1.1c-0.1-0.3,0-0.2,0-0.5c0-0.4-0.1-0.8-0.2-1.1c-0.5-1.4-1.3-2.4-1.7-3.8c-0.5-1.8-1.4-4.5-3-5.5
					c-0.6-0.4-1.1-0.6-1.8-1c-0.6-0.3-1.5-0.5-2-0.9l0.3-1.1c0.8-0.1,1.2-0.1,1.3-0.9c1.2-0.2,0.5-0.2,0.9-0.9
					c0.1-0.1,0.2-0.2,0.3-0.4c-0.1-0.7-0.4-0.5-0.1-1.5c0.2-0.6,0.2-0.8-0.3-1c0.1-0.6,0.2-0.7-0.1-1.2c-0.3-0.5-0.1-0.7-0.4-1.1
					c-0.3-0.4-0.4-0.2-0.7-0.9c-0.6-1.3-1.7-0.7-2.7-0.7c-0.6,0-1.6-0.1-2.1,0.1c-0.2,0.1-0.3,0.3-0.4,0.3c-0.2,0.1-0.3,0-0.6,0.1
					c-0.7,0.1-0.3,0.4-0.8,0.6c-0.6,0.3-0.7,0.1-0.7,0.8c0,0.5-0.3,0.5-0.5,0.9c-0.3,0.6,0.1,0.7-0.1,1.2c-0.2,0.6-0.2,0.7,0.1,1.2
					c0.5,1.1,0.5,0.6,1,1.3C293.2,336.3,292.9,336.2,293.1,337.5z"/>
			</defs>
			<clipPath id="SVGID_00000113337361728801799240000016037013439011799170_">
				<use xlink:href="#SVGID_00000018213027301372220140000006138712301030801555_"  style="overflow:visible;"/>
			</clipPath>
			
				<linearGradient id="SVGID_00000064341377597688154220000009585131103177243565_" gradientUnits="userSpaceOnUse" x1="285.536" y1="351.8615" x2="285.1862" y2="413.5452">
				<stop  offset="0" style="stop-color:#F58220"/>
				<stop  offset="1" style="stop-color:#C55827"/>
			</linearGradient>
			
				<rect x="259.6" y="328.3" style="clip-path:url(#SVGID_00000113337361728801799240000016037013439011799170_);fill:url(#SVGID_00000064341377597688154220000009585131103177243565_);" width="51.8" height="61.7"/>
		</g>
		<g>
			<defs>
				<path id="SVGID_00000150813078204262075010000009967945222452690349_" d="M263.7,375.8c1.2,0,2.1,1,2.1,2.1c0,1.2-1,2.1-2.1,2.1
					c-1.2,0-2.1-1-2.1-2.1C261.5,376.8,262.5,375.8,263.7,375.8"/>
			</defs>
			<clipPath id="SVGID_00000181788146437563864370000016739692508192425146_">
				<use xlink:href="#SVGID_00000150813078204262075010000009967945222452690349_"  style="overflow:visible;"/>
			</clipPath>
			
				<linearGradient id="SVGID_00000085252838089523713600000009868293284529883035_" gradientUnits="userSpaceOnUse" x1="263.6784" y1="377.4468" x2="263.6572" y2="381.7725">
				<stop  offset="0" style="stop-color:#F58220"/>
				<stop  offset="1" style="stop-color:#C55827"/>
			</linearGradient>
			
				<rect x="261.5" y="375.8" style="clip-path:url(#SVGID_00000181788146437563864370000016739692508192425146_);fill:url(#SVGID_00000085252838089523713600000009868293284529883035_);" width="4.3" height="4.3"/>
		</g>
		
			<rect x="317" y="7.4" transform="matrix(0.7071 -0.7071 0.7071 0.7071 80.2877 244.0484)" class="st11" width="35.5" height="35.5"/>
		<polygon class="st12" points="410.4,75.1 334.9,150.6 259.6,75.3 234.4,100.6 209.5,75.4 259.7,25.2 335,100.5 385.3,50 		"/>
		<polygon class="st11" points="334.8,200.8 259.5,276.1 234.4,251 284.6,200.8 259.5,175.8 134,301.3 108.9,276.2 234.4,150.7 
			234.4,150.6 259.5,125.5 		"/>
		<path class="st1" d="M450.8,91.8l-18.1,30l9.9,32.1h-18l-5.9-28.5h-0.1L414,154h-16.8l9.8-62.1h16.8l-4.1,26.4h0.1l13.3-26.4
			H450.8z"/>
		<path class="st1" d="M470.5,154l4-25.2h-8l-4,25.2h-16.8l9.8-62.1h16.8l-3.5,22.2h8l3.5-22.2h16.8l-9.8,62.1H470.5z"/>
		<path class="st1" d="M501.5,91.8h31.2l-2.3,14.7H516l-1.3,8.7h12.9l-2.4,14.7h-12.9l-1.5,9.5h14.4l-2.3,14.7h-31.2L501.5,91.8z"/>
		<path class="st1" d="M527,154l9.8-62.1h16.8l-7.5,47.5h12.6l-2.3,14.7H527z"/>
		<path class="st1" d="M584.8,139.4L584.8,139.4c6.3,0,8.6-12.6,9.2-16.5c0.6-3.9,2.3-16.5-4-16.5c-6.3,0-8.6,12.6-9.1,16.5
			C580.2,126.8,578.5,139.4,584.8,139.4 M592.5,90.8c17.1,0,21.1,17,18.7,32.1c-2.4,15.2-11.8,32.1-28.8,32.1
			c-17.1,0-21-17-18.6-32.1C566.1,107.7,575.4,90.8,592.5,90.8z"/>
		<path class="st1" d="M386,225.1l9.8-62.1h16.8l-9.8,62.1H386z"/>
		<path class="st1" d="M417,163h16l7.6,37.4l0.2-0.2c0.5-7.2,0.3-14.3,1.5-21.4l2.5-15.8h16.2l-9.8,62.1h-16.2l-6.8-35.8l-0.2,0.2
			c-0.6,5.8-0.7,11.6-1.6,17.5l-2.9,18.2h-16.1L417,163z"/>
		<path class="st1" d="M474.5,210.1L474.5,210.1c7.7-0.1,10.5-9.6,11.5-15.5c1.1-6.8,1.2-16.2-6.4-16.2L474.5,210.1z M465.1,163
			h13.5c19.1,0,27.5,12,24.6,30.8c-4.5,28.7-23,31.3-33.2,31.3h-14.7L465.1,163z"/>
		<path class="st1" d="M501.8,225.1l9.8-62.1h16.8l-9.8,62.1H501.8z"/>
		<path class="st1" d="M553.9,203.9L553.9,203.9l0.4-14.4c0.2-3.9,0.4-7.8,0.7-11.7h-0.2c-1.2,3.9-2.1,7.8-3.5,11.7l-4.5,14.4H553.9
			z M553.8,225.1v-8h-11.3l-2.6,8h-17.3l24.7-62.1h20.5l3.4,62.1H553.8z"/>
	</g>
	<g>
		<path class="st13" d="M457.7,64.9c0-0.1,0-0.2,0-0.3c0-5.1,0-10.2,0-15.3c0-0.2,0-0.3,0.2-0.4c2.1-1,3.4-2.6,3.8-5
			c0.3-1.9-0.3-3.6-1.6-5c-1.4-1.5-3.2-2.2-5.2-2c-2.7,0.2-5,2.4-5.5,5c-0.4,2.2,0.2,4.2,1.8,5.8c0.5,0.5,1.2,1,1.9,1.3
			c0.2,0.1,0.2,0.2,0.2,0.4c0,5.1,0,10.2,0,15.3c0,0.1,0,0.2,0,0.2c-8.8-0.7-18.1-8-19.4-19.2c-1.5-13.1,8.5-24,21-24.4
			c12.5-0.4,22.8,9.8,22.5,22.4C477,55.8,467.5,64.1,457.7,64.9z"/>
		<path class="st1" d="M517,64.3c0-14.1,0-28.1,0-42.2c0.1,0,0.1,0,0.1,0c5.3,0,10.5,0,15.8,0c2.6,0,5,0.5,7.3,1.8
			c3.2,1.7,5,4.4,5.4,8c0.3,2.7-0.1,5.2-1.6,7.6c-0.5,0.9-1.2,1.6-2,2.3c-0.1,0-0.1,0.1-0.2,0.2c1,0.5,1.8,1.2,2.6,2
			c1.5,1.6,2.4,3.6,2.7,5.8c0.4,2.4,0.1,4.7-0.8,6.9c-1,2.6-2.9,4.5-5.3,5.8c-1.9,1-3.9,1.6-6.1,1.8c-1.1,0.1-2.1,0.1-3.2,0.1
			c-4.9,0-9.8,0-14.6,0C517.2,64.3,517.1,64.3,517,64.3z M525.9,56.4c0.1,0,0.2,0,0.3,0c2.2,0,4.4,0,6.6,0c0.4,0,0.8,0,1.2-0.1
			c1.4-0.2,2.6-0.7,3.4-1.9c0.6-0.8,0.9-1.8,0.9-2.8c0.1-0.9,0-1.7-0.4-2.5c-0.9-1.8-2.3-2.7-4.3-2.8c-1.1-0.1-2.1,0-3.2,0
			c-0.1,0-0.2,0-0.3,0c0-2.6,0-5.2,0-7.8c0.7,0,1.4,0,2.1,0c0.5,0,1,0,1.4-0.1c1.5-0.3,2.5-1.1,2.9-2.7c0.2-1,0.2-2,0-2.9
			c-0.3-1.2-1.1-2.1-2.3-2.5c-0.6-0.2-1.2-0.3-1.9-0.3c-2.1,0-4.1,0-6.2,0c-0.1,0-0.1,0-0.2,0C525.9,38.8,525.9,47.6,525.9,56.4z"/>
		<path class="st1" d="M508.4,34.2c-0.3-0.3-0.7-0.6-1-0.9c-1.9-1.5-4.1-2.6-6.5-3c-1.5-0.3-3.1-0.2-4.5,0.5
			c-1.1,0.5-1.9,1.4-2.2,2.6c-0.2,0.9,0,1.8,0.7,2.5c0.7,0.8,1.5,1.3,2.4,1.7c1.7,0.8,3.5,1.6,5.3,2.3c1.9,0.8,3.7,1.7,5.4,2.8
			c1.8,1.3,3.3,2.8,4.2,4.9c0.8,1.8,1,3.7,0.9,5.6c-0.2,2.3-0.9,4.4-2.2,6.2c-1.7,2.4-4,3.9-6.8,4.8c-1.8,0.6-3.6,0.8-5.4,0.7
			c-3.5,0-6.9-0.9-10-2.6c-1.8-1-3.4-2.1-4.7-3.6c0,0-0.1-0.1-0.1-0.1c1.7-2.3,3.3-4.6,5-7c0.1,0.1,0.2,0.2,0.3,0.3
			c1.6,1.6,3.6,2.8,5.7,3.7c1.5,0.6,3.1,0.9,4.7,0.8c1-0.1,2-0.3,2.9-0.9c1.5-1.1,1.9-3.2,0.9-4.6c-0.3-0.5-0.8-0.8-1.2-1.2
			c-1.1-0.9-2.4-1.4-3.7-2c-1.9-0.9-3.9-1.7-5.8-2.6c-1.8-0.9-3.5-2-4.8-3.5c-2.2-2.3-3.1-5.1-2.8-8.2c0.4-4.7,2.9-7.9,7-10.1
			c2.3-1.2,4.8-1.7,7.4-1.7c2.8,0,5.5,0.5,8.1,1.6c1.6,0.7,3.1,1.6,4.4,2.7c0.2,0.2,0.5,0.4,0.7,0.7c0,0,0.1,0.2,0,0.2
			C511.1,29.2,509.8,31.6,508.4,34.2C508.4,34.1,508.4,34.1,508.4,34.2z"/>
		<path class="st1" d="M561,64.3c-3.1,0-6.3,0-9.4,0c0-14,0-28.1,0-42.2c3.1,0,6.3,0,9.4,0C561,36.2,561,50.2,561,64.3z"/>
	</g>
</g>
</svg>
