<?xml version="1.0" encoding="utf-8"?>
<!-- Generator: Adobe Illustrator 26.0.0, SVG Export Plug-In . SVG Version: 6.00 Build 0)  -->
<svg version="1.1" id="Layer_1" xmlns="http://www.w3.org/2000/svg" xmlns:xlink="http://www.w3.org/1999/xlink" x="0px" y="0px"
	 viewBox="0 0 178.4 161.5" style="enable-background:new 0 0 178.4 161.5;" xml:space="preserve">
<style type="text/css">
	.st0{fill:#FFFFFF;}
	.st1{fill:#EF7E19;}
	.st2{fill:#098036;}
</style>
<g id="Group_1275" transform="translate(-741.823 -342.5)">
	<g id="Group_1275-2" transform="translate(741.823 381.909)">
		<path id="Path_4586" class="st0" d="M0.2,71.7c9.2,6.7,21.5,9.9,37,9.9c12.7,0,21.8-2,27.1-6.2c1.9-1.5,3.5-3.3,4.8-5.4
			c3.9-6.4,3.1-15.1,3.1-15.1c-0.4-6-2.6-10.7-5.6-13.5c-2-1.8-4.3-3.2-6.8-4.1c-5.9-2.2-10.3-3.1-19.2-4.4c-4.1-0.5-8.1-1.2-12-2.2
			c-1.4-0.4-2.8-0.9-4.1-1.6c-1.9-1.2-3-3.3-3-5.5c0-6,3.4-8.2,15.4-8.2c0.8,0,17.7,0,17.7,0c6.7,0,12.1-4,14.3-10.4
			c0.4-1.4,0.7-2.7,0.9-4.1c0.1-0.3-0.2-0.7-0.5-0.7c0,0-0.1,0-0.1,0l-35.7,0C13.4,0.8,4.2,7.8,4.2,24c0,8.4,2.3,13.9,8.2,17.4
			c3.1,1.7,6.4,3,9.8,3.9c4.6,1.2,9.3,2,14.1,2.7c6.9,1,11.8,2.1,14.6,3.3c2.6,0.9,4.3,3.4,4.2,6.2c0,3.5-1.2,6-3.6,7.5
			c-2.5,1.4-7.4,2.1-14.7,2.1c-6.8,0-11.7-1.3-17.7-3.1C9.3,61,5,63.6,1.9,68l-1.8,3C-0.1,71.2,0,71.5,0.2,71.7z"/>
		<path id="Path_4587" class="st0" d="M130.3,67.5c0.4,0.9,1.3,3.1,2.4,5.3c4.3,8.3,9.3,8.7,20.3,8.7c0.1,0,0.2-0.1,0.2-0.2
			c0,0,0-0.1,0-0.1L121.6,0.5c-0.1-0.3-0.4-0.4-0.7-0.4h-14.3c-0.3,0-0.5,0.2-0.6,0.4L74.3,81.2c0,0.1,0,0.2,0.1,0.2
			c0,0,0.1,0,0.1,0c11.4,0,16-0.4,20.3-8.7c1.1-2.2,2.1-4.4,2.4-5.3c0.1-0.2,0.3-0.4,0.6-0.4h31.9C129.9,67.1,130.2,67.2,130.3,67.5
			z M124,52.6h-20.5c-0.2,0-0.3-0.2-0.3-0.3c0,0,0-0.1,0-0.1l10.2-26c0.1-0.2,0.3-0.3,0.4-0.2c0.1,0,0.2,0.1,0.2,0.2l10.2,26.1
			c0.1,0.2,0,0.4-0.2,0.4C124.1,52.6,124.1,52.6,124,52.6L124,52.6z"/>
		<path id="Path_4588" class="st0" d="M169.2,0c-4.6,0-7.1,3.1-7.1,7.3c0,0-0.2,69.7-0.2,73.9c0,0.1,0.1,0.2,0.2,0.2
			c1.9,0.1,3.8-0.1,5.6-0.5c3.3-0.7,6.1-2.6,7.9-5.4c1.7-2.8,2.6-6,2.5-9.3v-66c0-0.1-0.1-0.2-0.2-0.2H169.2z"/>
	</g>
	<path id="Path_4589" class="st0" d="M902.2,360.2c1.2,0.9,3,0.5,3.8-0.7c0.9-1.2,0.5-3-0.7-3.8c-1.2-0.9-3-0.5-3.8,0.7
		C900.7,357.6,901,359.3,902.2,360.2C902.2,360.2,902.2,360.2,902.2,360.2z"/>
	<g id="Group_1276" transform="translate(876.11 342.5)">
		<path id="Path_4590" class="st0" d="M26.1,17.7c1.2,0.9,3,0.5,3.8-0.7c0.9-1.2,0.5-3-0.7-3.8s-3-0.5-3.8,0.7c0,0,0,0,0,0
			C24.5,15.1,24.9,16.8,26.1,17.7C26.1,17.7,26.1,17.7,26.1,17.7z"/>
		<path id="Path_4591" class="st1" d="M13.8,24c3,4.6,2.8,7.1,2,9.1c0.2-0.3,0.5-0.6,0.7-0.9c2.4-3.1,2.9-7.2,1.4-10.8
			c-1.3-3.3-4.7-7.7-7.3-11.5C10,9,9.5,8.2,9,7.5C8.7,7,8.5,6.6,8.2,6.2L7.8,5.5l0.1,0.1C6.7,3.8,5.7,2,4.9,0
			c-4.4,5.8,2,14.4,2,14.4L13.8,24z"/>
		<path id="Path_4592" class="st2" d="M6.7,31.4c0.8,1.2,2.4,3.5,2.3,5.2c-0.1,1.2-0.8,2.3-1.8,2.9c1.5-0.6,3-1.4,4.4-2.3
			c1.8-2.3,2-5.4,0.6-7.9c-0.8-1.6-1.7-2.8-3.9-6c-2-2.8-3.8-5.8-5.4-8.9c0,0-4.8,5.1,0.1,12.2C3,26.5,5.3,29.5,6.7,31.4z"/>
		<path id="Path_4593" class="st0" d="M28,20.4c-0.2,0-0.2,0-0.6,0c-2.1,0-9.1-1-19.6-14.9c0,0,1.2,1.9,2.8,4.4
			c2.5,3.9,5.9,8.3,7.3,11.5c1.5,3.6,1,7.7-1.4,10.8c-3.6,4.9-8.9,7.6-16.5,9c6.3-0.7,12.4-2.6,18.1-5.5c8-4.1,14.9-9.9,20.2-17.1
			c0,0,4.2-5.9,5.8-9.8C44.1,8.8,36.5,19.8,28,20.4z"/>
	</g>
	<g id="Group_1277" transform="translate(741.835 495.755)">
		<path id="Path_4594" class="st0" d="M3.8,3.3C2.4,3,2,2.8,2,2.3v0c0-0.4,0.4-0.7,1-0.7c0.7,0,1.5,0.3,2.1,0.8L6,1
			C5.2,0.4,4.2,0,3.1,0C1.7-0.1,0.5,0.8,0.3,2.2c0,0.1,0,0.1,0,0.2v0c0,1.6,1,2,2.6,2.4c1.3,0.3,1.6,0.6,1.6,1v0
			c0,0.5-0.4,0.7-1.1,0.7c-0.9,0-1.7-0.4-2.4-1L0,6.9c0.9,0.8,2.1,1.3,3.4,1.3c1.7,0,2.9-0.9,2.9-2.5v0C6.3,4.3,5.4,3.7,3.8,3.3z"/>
		<path id="Path_4595" class="st0" d="M11,0.1H7.8v7.9h1.7V5.7h1.3c1.8,0,3.2-1,3.2-2.8v0c0-1.5-1.2-2.7-2.7-2.8
			C11.3,0.1,11.1,0.1,11,0.1z M12.3,2.9c0,0.7-0.6,1.2-1.2,1.2c0,0-0.1,0-0.1,0H9.5V1.7h1.3C11.7,1.7,12.3,2.1,12.3,2.9L12.3,2.9z"
			/>
		<path id="Path_4596" class="st0" d="M19.2,0C17-0.1,15.1,1.7,15,4c0,0,0,0.1,0,0.1v0c0.1,2.3,2,4.1,4.4,4.1c2.2-0.1,4-1.9,4.1-4.1
			v0c0-2.2-1.8-4.1-4-4.1C19.3,0,19.3,0,19.2,0z M21.6,4.1c0.1,1.3-1,2.4-2.3,2.5c0,0-0.1,0-0.1,0c-1.3,0-2.4-1.1-2.4-2.4
			c0,0,0-0.1,0-0.1v0c-0.1-1.3,1-2.4,2.3-2.5c0,0,0.1,0,0.1,0C20.5,1.6,21.6,2.7,21.6,4.1C21.6,4.1,21.6,4.1,21.6,4.1L21.6,4.1z"/>
		<path id="Path_4597" class="st0" d="M31.6,2.8L31.6,2.8c0-0.7-0.2-1.3-0.7-1.8c-0.6-0.6-1.5-0.9-2.3-0.8H25v7.9h1.7V5.5h1.4
			l1.7,2.5h2l-1.9-2.8C30.9,4.9,31.6,3.9,31.6,2.8z M29.8,2.9c0,0.7-0.5,1.1-1.3,1.1h-1.8V1.7h1.7C29.3,1.7,29.8,2.1,29.8,2.9
			L29.8,2.9z"/>
		<path id="Path_4598" class="st0" d="M32.6,1.7H35v6.3h1.7V1.7h2.4V0.1h-6.6V1.7z"/>
		<path id="Path_4599" class="st0" d="M43.6,3.3c-1.4-0.4-1.7-0.5-1.7-1v0c0-0.4,0.4-0.7,1-0.7c0.7,0,1.5,0.3,2.1,0.8L45.8,1
			C45,0.4,44,0,42.9,0c-1.4-0.2-2.6,0.8-2.8,2.2c0,0.1,0,0.1,0,0.2v0c0,1.6,1,2,2.6,2.4c1.3,0.3,1.6,0.6,1.6,1v0
			c0,0.5-0.4,0.7-1.1,0.7c-0.9,0-1.7-0.4-2.4-1l-1,1.2c0.9,0.8,2.1,1.3,3.4,1.3c1.7,0,2.9-0.9,2.9-2.5v0C46.1,4.3,45.2,3.7,43.6,3.3
			z"/>
		<path id="Path_4600" class="st0" d="M53.7,0.1l-3.4,8h1.8l0.7-1.8h3.3l0.7,1.8h1.8l-3.4-8H53.7z M53.4,4.7l1.1-2.6l1.1,2.6H53.4z"
			/>
		<path id="Path_4601" class="st0" d="M64.7,4.7c0,1.3-0.6,1.9-1.7,1.9c-1.1,0-1.7-0.7-1.7-2V0.1h-1.7v4.5c0,2.3,1.3,3.5,3.4,3.5
			c2.1,0,3.5-1.2,3.5-3.6V0.1h-1.7V4.7z"/>
		<path id="Path_4602" class="st0" d="M67.6,1.7h2.4v6.3h1.7V1.7h2.4V0.1h-6.6L67.6,1.7z"/>
		<path id="Path_4603" class="st0" d="M80.5,3.3h-3.2V0.1h-1.7v7.9h1.7V4.9h3.2v3.2h1.7V0.1h-1.7L80.5,3.3z"/>
		<path id="Path_4604" class="st0" d="M88,0c-2.3-0.1-4.2,1.7-4.2,4c0,0,0,0.1,0,0.1v0c0.1,2.3,2,4.1,4.4,4.1c2.2-0.1,4-1.9,4.1-4.1
			v0c0-2.2-1.8-4.1-4-4.1C88.1,0,88.1,0,88,0z M90.4,4.1c0.1,1.3-1,2.4-2.3,2.5c0,0-0.1,0-0.1,0c-1.3,0-2.4-1.1-2.4-2.4
			c0,0,0-0.1,0-0.1v0c-0.1-1.3,1-2.4,2.3-2.5c0,0,0.1,0,0.1,0C89.3,1.6,90.4,2.7,90.4,4.1C90.4,4.1,90.4,4.1,90.4,4.1L90.4,4.1z"/>
		<path id="Path_4605" class="st0" d="M100.4,2.8L100.4,2.8c0-0.7-0.2-1.3-0.7-1.8c-0.6-0.6-1.5-0.9-2.3-0.8h-3.6v7.9h1.7V5.5h1.4
			l1.7,2.5h2l-1.9-2.8C99.7,4.9,100.4,3.9,100.4,2.8z M98.6,2.9c0,0.7-0.5,1.1-1.3,1.1h-1.8V1.7h1.7C98.1,1.7,98.6,2.1,98.6,2.9
			L98.6,2.9z"/>
		<rect id="Rectangle_318" x="102" y="0.1" class="st0" width="1.7" height="7.9"/>
		<path id="Path_4606" class="st0" d="M105.2,1.7h2.4v6.3h1.7V1.7h2.4V0.1h-6.6V1.7z"/>
		<path id="Path_4607" class="st0" d="M116.2,3.3l-1.9-3.2h-2l3,4.8v3.1h1.7V4.9l3-4.8h-2L116.2,3.3z"/>
		<path id="Path_4608" class="st0" d="M128.5,0c-2.3-0.1-4.2,1.7-4.2,4c0,0,0,0.1,0,0.1v0c0.1,2.3,2,4.1,4.4,4.1
			c2.2-0.1,4-1.9,4.1-4.1v0c0-2.2-1.8-4.1-4-4.1C128.6,0,128.5,0,128.5,0z M130.9,4.1c0.1,1.3-1,2.4-2.3,2.5c0,0-0.1,0-0.1,0
			c-1.3,0-2.4-1.1-2.4-2.4c0,0,0-0.1,0-0.1v0c-0.1-1.3,1-2.4,2.3-2.5c0,0,0.1,0,0.1,0C129.8,1.6,130.9,2.7,130.9,4.1
			C130.9,4,130.9,4.1,130.9,4.1L130.9,4.1z"/>
		<path id="Path_4609" class="st0" d="M134.2,8.1h1.7V5h3.8V3.4H136V1.7h4.3V0.1h-6L134.2,8.1z"/>
		<rect id="Rectangle_319" x="145.1" y="0.1" class="st0" width="1.7" height="7.9"/>
		<path id="Path_4610" class="st0" d="M154.2,5l-3.7-4.9h-1.6v7.9h1.7V3l3.8,5h1.5V0.1h-1.7V5z"/>
		<path id="Path_4611" class="st0" d="M160.9,0.1h-3.1v7.9h3.1c2.2,0.1,4.1-1.5,4.2-3.7c0-0.1,0-0.2,0-0.2v0c0-2.2-1.8-3.9-4-3.9
			C161.1,0.1,161,0.1,160.9,0.1z M163.3,4.1c0.1,1.2-0.9,2.3-2.1,2.4c-0.1,0-0.2,0-0.2,0h-1.3V1.7h1.3c1.3-0.1,2.3,0.9,2.4,2.2
			C163.3,3.9,163.3,4,163.3,4.1L163.3,4.1z"/>
		<rect id="Rectangle_320" x="166.8" y="0.1" class="st0" width="1.7" height="7.9"/>
		<path id="Path_4612" class="st0" d="M174.8,0.1h-1.6l-3.4,8h1.8l0.7-1.8h3.3l0.7,1.8h1.8L174.8,0.1z M172.9,4.7l1.1-2.6l1.1,2.6
			H172.9z"/>
	</g>
	<g id="Group_1278" transform="translate(762.305 471.694)">
		<path id="Path_4613" class="st0" d="M34.5,4.2h-1.4c-0.1-0.5-0.3-0.9-0.4-1.3c-0.2-0.5-0.4-0.9-0.7-1.3c-0.3-0.4-0.7-0.7-1.1-1
			c-0.5-0.3-1-0.4-1.6-0.4c-0.4,0-0.8,0.1-1.1,0.2c-0.3,0.1-0.6,0.3-0.8,0.5c-0.2,0.2-0.4,0.5-0.5,0.8c-0.1,0.3-0.2,0.6-0.2,1
			c0,0.4,0.1,0.8,0.2,1.2c0.1,0.2,0.1,0.3,0.2,0.4H6v1.4h1.5v4H4.9v-3c0-0.7-0.2-1.4-0.6-1.9C3.8,4.3,3.1,4,2.4,4.1
			c-0.3,0-0.7,0.1-1,0.2C1.2,4.3,0.9,4.5,0.7,4.7C0.5,4.9,0.3,5.2,0.2,5.4C0.1,5.7,0,6,0,6.3c0,0.3,0,0.6,0.1,0.8
			c0.1,0.2,0.2,0.5,0.3,0.7c0.1,0.2,0.3,0.4,0.5,0.5c0.2,0.1,0.3,0.2,0.5,0.3l0.9-1C2.1,7.5,2,7.4,1.8,7.2C1.7,7,1.6,6.7,1.6,6.4
			c0-0.3,0.1-0.5,0.2-0.7C2,5.5,2.2,5.5,2.4,5.5c0.5,0,0.7,0.3,0.7,1v3.1H3.1c-0.3,0-0.6,0.1-0.8,0.3c-0.2,0.2-0.4,0.5-0.4,0.8
			c0,0.3,0.1,0.5,0.2,0.7c0.1,0.2,0.3,0.4,0.4,0.6c0.2,0.2,0.4,0.3,0.6,0.4c0.2,0.1,0.5,0.1,0.7,0.1c0.2,0,0.5,0,0.7-0.1
			c0.1-0.1,0.2-0.1,0.3-0.2V11h2.5v3.7h1.8V5.6h2.5v9.1h1.8V5.6H18c0.2,0.3,0.3,0.5,0.4,0.8c0.2,0.4,0.2,0.8,0.2,1.2
			c0,0.4-0.1,0.9-0.4,1.2c-0.2,0.3-0.6,0.4-0.9,0.4c-0.3,0-0.7-0.2-0.8-0.5l-0.3-0.4c-0.3,0-0.6,0.1-0.8,0.2
			c-0.2,0.1-0.3,0.4-0.3,0.6c0,0.2,0,0.3,0.1,0.5c0.1,0.2,0.2,0.5,0.4,0.7l3.1,4.6l1.6-1l-2.6-3.4h0.2c0.3,0,0.7-0.1,1-0.2
			c0.3-0.1,0.6-0.3,0.9-0.6c0.3-0.3,0.5-0.6,0.6-0.9c0.2-0.4,0.2-0.8,0.2-1.2c0-0.5-0.1-0.9-0.2-1.3c-0.1-0.3-0.3-0.6-0.4-0.8h7.6v2
			h-2.5c-0.8,0-1.6,0.2-2.3,0.7c-0.6,0.6-0.9,1.4-0.8,2.2c0,0.8,0.2,1.6,0.5,2.3c0.3,0.7,0.7,1.4,1.1,2l1.6-0.7
			c-0.4-0.6-0.7-1.2-1-1.8c-0.2-0.6-0.4-1.1-0.4-1.7c0-0.4,0.1-0.9,0.4-1.2c0.3-0.3,0.8-0.5,1.3-0.4h2.2v5.6h1.8V5.6h2.5v9.1h1.8
			V5.6h3.7c0.2,0.2,0.3,0.4,0.4,0.6c0.1,0.2,0.2,0.5,0.2,0.7c0,0.4-0.2,0.8-0.5,1.1c-0.5,0.3-1.1,0.4-1.6,0.4l-0.4,0
			c0,0.7,0.1,1.3,0.4,1.9c0.2,0.5,0.5,0.9,0.9,1.3c0.4,0.3,0.8,0.6,1.3,0.7c0.5,0.2,1,0.2,1.5,0.2c0.5,0,0.9,0,1.4-0.2
			c0.3-0.1,0.5-0.2,0.7-0.4v2.6h1.8V5.6h1.4V4.2L34.5,4.2L34.5,4.2z M30.6,4.2h-1.8c-0.1-0.2-0.2-0.4-0.3-0.6
			c-0.1-0.3-0.2-0.6-0.1-0.9c0-0.3,0.1-0.6,0.3-0.8c0.2-0.2,0.5-0.3,0.8-0.3c0.3,0,0.6,0.1,0.8,0.2c0.2,0.2,0.4,0.4,0.6,0.6
			C30.9,2.8,31,3,31.2,3.3c0.1,0.3,0.2,0.6,0.3,0.9L30.6,4.2z M39.4,7.2c0-0.3-0.1-0.6-0.2-0.9C39.2,6,39,5.8,38.9,5.6h2.4v4.8
			c-0.2,0.2-0.5,0.4-0.8,0.5c-0.4,0.2-0.8,0.2-1.3,0.2c-0.6,0-1.2-0.1-1.6-0.5C37.3,10.4,37,10,37,9.5c0.7,0,1.3-0.3,1.8-0.7
			C39.2,8.4,39.5,7.8,39.4,7.2L39.4,7.2z"/>
		<path id="Path_4614" class="st0" d="M61.7,4.2h-1.5l-1-1.9c-0.3-0.7-0.8-1.3-1.4-1.7C57.2,0.2,56.4,0,55.7,0c-0.3,0-0.6,0-0.9,0.1
			c-0.3,0.1-0.5,0.1-0.7,0.3l0.6,1.6c0.2-0.1,0.4-0.1,0.6-0.2c0.2,0,0.4-0.1,0.6-0.1c0.5,0,0.9,0.1,1.3,0.4c0.4,0.3,0.8,0.7,1,1.2
			l0.6,0.9h-9.9v1.4h3c0.2,0.3,0.3,0.5,0.4,0.8c0.1,0.4,0.1,0.7,0.1,1.1c0,0.4-0.1,0.8-0.3,1.2c-0.2,0.2-0.5,0.4-0.7,0.4
			c-0.2,0-0.4-0.2-0.5-0.5l-0.2-0.5C50.3,8,50,8.1,49.7,8.2c-0.2,0.1-0.4,0.4-0.4,0.7c0,0.1,0,0.3,0,0.4c0,0.1,0.1,0.3,0.1,0.3
			c0.2,0.8,0.5,1.5,0.9,2.1c0.8,1.1,2,2,3.3,2.3c0.7,0.2,1.4,0.3,2.1,0.3c0.6,0,1.3-0.1,1.9-0.2c0.4-0.1,0.8-0.3,1.2-0.5v0.9h1.8
			V5.6h9.8v1.8c-0.3-0.1-0.6-0.1-0.9-0.1c-0.4,0-0.7,0.1-1,0.2c-0.3,0.1-0.6,0.3-0.8,0.6c-0.6-0.5-1.4-0.8-2.2-0.8
			c-0.4,0-0.8,0.1-1.1,0.2c-0.4,0.1-0.7,0.3-1,0.6c-0.3,0.3-0.5,0.6-0.7,0.9c-0.2,0.4-0.3,0.9-0.3,1.3c0,0.5,0.1,1.1,0.3,1.6
			c0.2,0.5,0.4,0.9,0.8,1.3c0.3,0.4,0.7,0.7,1.1,1c0.4,0.3,0.8,0.6,1.3,0.8l1.1-1.3c-0.3-0.2-0.7-0.4-1-0.6
			c-0.3-0.2-0.6-0.5-0.9-0.7c-0.2-0.3-0.5-0.6-0.6-0.9c-0.2-0.4-0.2-0.7-0.2-1.1c0-0.5,0.1-0.9,0.4-1.2c0.3-0.3,0.7-0.4,1.1-0.4
			c0.5,0,0.9,0.1,1.2,0.4c-0.1,0.3-0.2,0.6-0.2,0.9c-0.1,0.4-0.1,0.9-0.1,1.3h1.8c0-0.7,0.1-1.4,0.4-2c0.2-0.4,0.6-0.6,1-0.6
			c0.1,0,0.2,0,0.3,0c0.1,0,0.1,0,0.2,0.1v5.9h1.8V5.6h1.4V4.2H61.7z M58.8,10.2c-0.3,0.2-0.6,0.3-0.9,0.2c-0.3,0-0.6-0.1-0.9-0.3
			c-0.3-0.2-0.4-0.6-0.4-1c0-0.4,0.1-0.7,0.4-0.9C57.3,8,57.6,7.9,58,7.9c0.3,0,0.6,0.1,0.9,0.2L58.8,10.2z M58.8,6.9
			c-0.2-0.1-0.3-0.1-0.5-0.2c-0.2,0-0.4-0.1-0.7-0.1c-0.3,0-0.7,0.1-1,0.2c-0.3,0.1-0.6,0.3-0.8,0.5c-0.2,0.2-0.4,0.5-0.6,0.8
			c-0.1,0.3-0.2,0.7-0.2,1c0,0.4,0.1,0.7,0.2,1.1c0.1,0.3,0.3,0.6,0.6,0.8c0.2,0.2,0.5,0.4,0.8,0.5c0.3,0.1,0.6,0.2,1,0.2
			c0.2,0,0.5,0,0.7-0.1c0.2,0,0.3-0.1,0.4-0.2v0.9c-0.3,0.2-0.7,0.4-1.1,0.5c-0.6,0.2-1.2,0.2-1.8,0.2c-0.5,0-1-0.1-1.5-0.2
			c-0.4-0.1-0.9-0.3-1.3-0.5c-0.4-0.2-0.7-0.5-1-0.8c-0.3-0.3-0.5-0.7-0.7-1.1c0.1,0,0.2,0,0.2,0c0.4,0,0.7-0.1,1-0.2
			c0.3-0.1,0.6-0.3,0.8-0.6c0.2-0.3,0.4-0.6,0.5-0.9c0.1-0.4,0.2-0.8,0.2-1.1c0-0.4-0.1-0.8-0.2-1.2c-0.1-0.3-0.2-0.6-0.4-0.9h5.2
			L58.8,6.9z"/>
		<path id="Path_4615" class="st0" d="M104.1,4.2c-0.1,0-0.2-0.1-0.2-0.2c-0.9-1-1.9-1.9-3.1-2.5c-0.2-0.1-0.3-0.2-0.5-0.2
			C99.6,1,98.8,0.8,98,0.7c-1.3-0.3-2.7-0.2-4,0.3c-0.3,0.1-0.6,0.3-0.8,0.5c-0.7,0.5-1.1,1.5-0.8,2.4c0,0.1,0.1,0.2,0.1,0.4H78.7v0
			h0v1.4h0v0h0.8v0.3c0,0.9,0,1.9,0,2.8c-0.1,1.2,0.7,2.3,1.8,2.6c0.2,0.1,0.3,0.1,0.6,0.1L79,13.7l1.5,1.2l3.6-3.8l0,0v3.5h1.8
			v-0.1l0,0v-9h2.4v9.1h1.8V5.6h2.4v9.1h1.8V5.6h1.4v-1c0,0,0-0.1,0-0.1c0,0,0-0.1,0-0.1V4.2h-1.5c-0.1,0-0.2-0.1-0.2-0.1
			c-0.2-0.5,0-1.1,0.4-1.5c0.2-0.2,0.5-0.3,0.7-0.4c1-0.3,2-0.3,3,0c0.9,0.2,1.8,0.6,2.6,1.1c0.2,0.1,0.3,0.2,0.4,0.3h0
			c0.5,0.3,0.9,0.7,1.3,1.1c0.1,0.1,0.2,0.3,0.2,0.4c0,1.8,0,3.6,0,5.4c0,0.3-0.2,0.7-0.5,0.8c0,0-0.1,0-0.1,0.1
			c-0.8,0.3-1.6,0.5-2.4,0.4c-0.4,0-0.8-0.1-1.1-0.4c-0.4-0.3-0.4-0.8-0.1-1.1c0.1-0.1,0.2-0.2,0.3-0.2c0.2-0.1,0.4-0.1,0.6-0.2
			c0.5,0,1.1,0,1.6,0c0.2,0,0.2,0,0.2-0.2c0-0.3,0-0.6,0-1c0-0.2,0-0.2-0.2-0.2c-0.4,0-0.8,0-1.2,0c-1,0-1.8-0.8-1.8-1.8
			c0-0.1,0-0.1,0-0.2c0-0.4,0.2-0.7,0.6-0.9c0.3-0.1,0.7-0.1,0.9,0.1c0.3,0.3,0.4,0.6,0.2,1c-0.1,0.2-0.2,0.4-0.3,0.6
			c0.3,0.1,0.7,0.3,1,0.4c0.1,0.1,0.3,0,0.4-0.1c0.6-0.7,0.6-1.8,0-2.6c-0.4-0.5-1.1-0.9-1.8-0.9c-0.9-0.1-1.8,0.1-2.4,0.8
			c-0.9,1-0.8,2.6,0.2,3.5c0.2,0.2,0.4,0.3,0.6,0.4c0.1,0,0.2,0.1,0.3,0.2C97.7,9,97.5,9,97.4,9.1c-0.5,0.2-0.9,0.8-0.9,1.3
			c-0.1,1.1,0.5,2.1,1.5,2.4c1.1,0.4,2.3,0.5,3.5,0.2c0.4-0.1,0.8-0.2,1.2-0.4v1.9h0v0.1h1.8V5.6h6.6v1.8c0,0,0,0.1,0,0.2
			c-0.2-0.1-0.3-0.2-0.4-0.3c-0.6-0.3-1.3-0.4-1.9-0.3c-0.4,0-0.9,0.2-1.2,0.4c-0.8,0.5-1.3,1.4-1.2,2.4c-0.1,1.6,1.2,3.1,2.8,3.1
			c0.1,0,0.2,0,0.2,0c0.5,0,0.9-0.1,1.3-0.3c0.1-0.1,0.2-0.2,0.4-0.3v2.3h1.8V9.6c0-0.2,0.1-0.3,0.2-0.5c0.4-0.5,1-0.8,1.6-0.6
			c0.7,0,1.2,0.6,1.1,1.3c0.1,0.7-0.3,1.4-1,1.5c-0.3,0.1-0.6,0.1-0.9,0.1c-0.1,0-0.2,0.1-0.2,0.1c-0.1,0.4-0.1,0.7-0.2,1.1
			c0,0.1,0,0.2,0.2,0.2c0.6,0.1,1.1,0.1,1.7-0.1c0.9-0.2,1.6-0.8,1.9-1.6c0.2-0.5,0.3-1.1,0.2-1.6c-0.1-0.6-0.4-1.2-0.8-1.7
			c-1.1-0.9-2.6-0.9-3.8-0.2c0,0-0.1,0-0.1,0.1v-2h8.9c0,0,0.1,0,0.1,0.1c0.5,0.7,0.7,1.7,0.5,2.5c-0.1,0.6-0.6,1-1.2,0.9
			c-0.4,0-0.7-0.2-0.9-0.6c-0.1-0.2-0.4-0.3-0.6-0.2c-0.5,0.1-0.8,0.5-0.7,0.9c0,0.1,0,0.1,0,0.2c0.1,0.2,0.2,0.4,0.3,0.6
			c1,1.6,2.1,3.1,3.1,4.7c0.1,0.1,0.1,0.1,0.3,0.1c0.3-0.2,0.7-0.4,1-0.6c0.1-0.1,0.2-0.2,0.4-0.2l-2.5-3.3l0.5-0.1
			c0.7-0.1,1.3-0.4,1.7-0.9c0.6-0.7,0.8-1.7,0.6-2.6c-0.1-0.5-0.3-1-0.5-1.4h2.5c0,0.1,0,0.2,0,0.3c0,1.3,0,2.6,0.1,3.8
			c0,0.9,0.6,1.7,1.4,2c0.7,0.3,1.5,0.4,2.2,0.3c1.3-0.1,2.3-1.3,2.3-2.6c0-1.1,0-2.6,0-3.7h2v9.1h1.8V5.6h1.4V4.2L104.1,4.2z
			 M84.1,9.4c0,0.1-0.1,0.1-0.1,0.2c-0.5,0.4-1.2,0.6-1.9,0.4c-0.5-0.1-0.8-0.5-0.8-1c0-1.1,0-2.2,0-3.4h2.9L84.1,9.4z M111.1,10
			c0,0.2-0.1,0.5-0.1,0.7c-0.3,0.6-0.9,0.9-1.5,0.8c-0.9-0.1-1.5-0.9-1.4-1.7c0.1-0.8,0.9-1.5,1.7-1.4c0.4,0,0.8,0.2,1.1,0.4
			c0.1,0.1,0.2,0.1,0.2,0.2L111.1,10z M130.4,9.2c0,0.3-0.1,0.6-0.1,0.9c-0.1,0.3-0.3,0.5-0.5,0.5c-0.8,0.2-1.6,0.1-1.7-1.1
			c-0.1-1.2,0-2.7,0-3.9h2.4c0,0.1,0,0.2,0,0.2C130.4,7,130.4,8.1,130.4,9.2L130.4,9.2z"/>
	</g>
</g>
</svg>
