<svg xmlns="http://www.w3.org/2000/svg" width="178.354" height="161.451" viewBox="0 0 178.354 161.451">
  <g id="Group_1275" data-name="Group 1275" transform="translate(-741.823 -342.5)">
    <g id="Group_1275-2" data-name="Group 1275" transform="translate(741.823 381.909)">
      <path id="Path_4586" data-name="Path 4586" d="M742.032,510.644c9.232,6.736,21.472,9.9,37.035,9.9,12.688,0,21.751-2.026,27.081-6.184a19.7,19.7,0,0,0,4.79-5.41c3.871-6.417,3.132-15.127,3.132-15.127-.367-6.043-2.56-10.654-5.575-13.473a19.577,19.577,0,0,0-6.823-4.051c-5.863-2.24-10.342-3.093-19.191-4.371a95.739,95.739,0,0,1-12.047-2.239,17.561,17.561,0,0,1-4.051-1.6,6.51,6.51,0,0,1-2.985-5.543c0-5.97,3.411-8.21,15.352-8.21.831,0,17.683-.049,17.683-.049,6.721,0,12.052-4.049,14.345-10.367a36.466,36.466,0,0,0,.933-4.138.637.637,0,0,0-.632-.751l-35.7.025c-20.2.7-29.364,7.682-29.364,23.916,0,8.422,2.345,13.859,8.21,17.378a41.952,41.952,0,0,0,9.808,3.944,124.544,124.544,0,0,0,14.073,2.665c6.93.96,11.835,2.132,14.607,3.305a6.21,6.21,0,0,1,4.158,6.184c0,3.518-1.172,5.97-3.625,7.463-2.452,1.386-7.356,2.133-14.712,2.133-6.775,0-11.693-1.276-17.721-3.118-9.729-2.972-14.022-.325-17.074,4.068l-1.84,2.967A.515.515,0,0,0,742.032,510.644Z" transform="translate(-741.823 -438.982)" fill="navy"/>
      <path id="Path_4587" data-name="Path 4587" d="M979.47,506.468c.36.889,1.3,3.146,2.43,5.323,4.307,8.316,9.317,8.669,20.345,8.669a.176.176,0,0,0,.161-.254l-31.621-80.733a.7.7,0,0,0-.655-.447h-14.35a.638.638,0,0,0-.594.405l-31.722,80.775a.175.175,0,0,0,.161.254c11.373,0,16.038-.353,20.345-8.669,1.128-2.178,2.069-4.434,2.43-5.323a.632.632,0,0,1,.59-.394H978.88A.632.632,0,0,1,979.47,506.468Zm-6.241-14.9h-20.5a.343.343,0,0,1-.319-.468l10.243-26.048a.346.346,0,0,1,.644,0l10.246,26.054A.338.338,0,0,1,973.229,491.568Z" transform="translate(-849.21 -438.981)" fill="navy"/>
      <path id="Path_4588" data-name="Path 4588" d="M1145.324,438.917c-4.578,0-7.127,3.066-7.127,7.308,0,0-.154,69.743-.152,73.882a.247.247,0,0,0,.244.244,19.524,19.524,0,0,0,5.616-.5,12.575,12.575,0,0,0,7.933-5.395,17.255,17.255,0,0,0,2.482-9.285V439.164a.247.247,0,0,0-.247-.247Z" transform="translate(-976.095 -438.917)" fill="navy"/>
    </g>
    <path id="Path_4589" data-name="Path 4589" d="M1132.527,378.593a2.738,2.738,0,1,0-.709-3.807A2.737,2.737,0,0,0,1132.527,378.593Z" transform="translate(-230.306 -18.387)" fill="navy"/>
    <g id="Group_1276" data-name="Group 1276" transform="translate(876.11 342.5)">
      <path id="Path_4590" data-name="Path 4590" d="M1132.524,378.591a2.738,2.738,0,1,0-.708-3.806A2.737,2.737,0,0,0,1132.524,378.591Z" transform="translate(-1106.414 -360.886)" fill="navy"/>
      <path id="Path_4591" data-name="Path 4591" d="M1088.98,366.521c2.986,4.635,2.777,7.069,2.019,9.052q.344-.419.666-.86a10.713,10.713,0,0,0,1.411-10.771c-1.32-3.256-4.733-7.67-7.258-11.537-.6-.912-1.133-1.74-1.577-2.425q-.443-.669-.834-1.292l-.432-.672.08.105a39.1,39.1,0,0,1-2.954-5.622c-4.412,5.842,2.019,14.372,2.019,14.372Z" transform="translate(-1075.208 -342.5)" fill="#ef7e19"/>
      <path id="Path_4592" data-name="Path 4592" d="M1078.185,394.643c.836,1.173,2.4,3.536,2.256,5.171a3.57,3.57,0,0,1-1.846,2.9,27.427,27.427,0,0,0,4.4-2.327,7.22,7.22,0,0,0,.633-7.9c-.821-1.56-1.7-2.75-3.862-6.01a68.029,68.029,0,0,1-5.369-8.861s-4.758,5.133.082,12.16C1074.479,389.768,1076.827,392.736,1078.185,394.643Z" transform="translate(-1071.513 -363.258)" fill="#098036"/>
      <path id="Path_4593" data-name="Path 4593" d="M1098.406,370.928c-.157.011-.213-.007-.627,0-2.065.035-9.132-1.02-19.646-14.931,0,0,1.2,1.874,2.843,4.388,2.526,3.867,5.939,8.281,7.258,11.537a10.712,10.712,0,0,1-1.411,10.771c-3.552,4.876-8.856,7.634-16.458,8.995a52.857,52.857,0,0,0,18.09-5.54,58.288,58.288,0,0,0,20.208-17.079s4.238-5.878,5.769-9.8C1114.432,359.272,1106.9,370.3,1098.406,370.928Z" transform="translate(-1070.365 -350.48)" fill="navy"/>
    </g>
    <g id="Group_1277" data-name="Group 1277" transform="translate(741.835 495.755)">
      <path id="Path_4594" data-name="Path 4594" d="M745.61,720.8c-1.37-.351-1.71-.52-1.71-1.041v-.022c0-.385.352-.691,1.019-.691a3.715,3.715,0,0,1,2.06.781l.905-1.313a4.587,4.587,0,0,0-2.943-1.007,2.479,2.479,0,0,0-2.774,2.388v.022c0,1.574,1.03,2.016,2.627,2.423,1.324.339,1.6.565,1.6,1.007v.023c0,.465-.43.747-1.144.747a3.635,3.635,0,0,1-2.366-.962l-1.03,1.233a5.039,5.039,0,0,0,3.362,1.268c1.71,0,2.909-.883,2.909-2.457v-.022C748.123,721.794,747.218,721.217,745.61,720.8Z" transform="translate(-741.852 -717.481)" fill="navy"/>
      <path id="Path_4595" data-name="Path 4595" d="M764.15,717.78h-3.238V725.7h1.744v-2.377h1.325c1.777,0,3.2-.952,3.2-2.785v-.023A2.714,2.714,0,0,0,764.15,717.78Zm1.268,2.8a1.228,1.228,0,0,1-1.381,1.2h-1.381v-2.423H764c.871,0,1.415.419,1.415,1.2Z" transform="translate(-753.121 -717.644)" fill="navy"/>
      <path id="Path_4596" data-name="Path 4596" d="M782.786,717.448a4.1,4.1,0,0,0-4.223,4.1v.023a4.213,4.213,0,0,0,8.422-.023v-.022A4.06,4.06,0,0,0,782.786,717.448Zm2.377,4.121a2.37,2.37,0,0,1-2.377,2.468,2.408,2.408,0,0,1-2.4-2.49v-.022a2.371,2.371,0,0,1,2.378-2.468,2.408,2.408,0,0,1,2.4,2.491Z" transform="translate(-763.558 -717.448)" fill="navy"/>
      <path id="Path_4597" data-name="Path 4597" d="M809.583,720.418V720.4a2.488,2.488,0,0,0-.679-1.812,3.156,3.156,0,0,0-2.309-.8h-3.623V725.7h1.744v-2.535h1.37l1.7,2.535h2.038l-1.936-2.83A2.462,2.462,0,0,0,809.583,720.418Zm-1.766.091c0,.668-.487,1.12-1.336,1.12h-1.766v-2.275h1.732c.849,0,1.37.385,1.37,1.132Z" transform="translate(-777.99 -717.644)" fill="navy"/>
      <path id="Path_4598" data-name="Path 4598" d="M821.619,719.387h2.411V725.7h1.743v-6.317h2.412V717.78h-6.566Z" transform="translate(-789.015 -717.644)" fill="navy"/>
      <path id="Path_4599" data-name="Path 4599" d="M842.971,720.8c-1.37-.351-1.71-.52-1.71-1.041v-.022c0-.385.351-.691,1.019-.691a3.715,3.715,0,0,1,2.06.781l.905-1.313A4.586,4.586,0,0,0,842.3,717.5a2.479,2.479,0,0,0-2.774,2.388v.022c0,1.574,1.03,2.016,2.627,2.423,1.324.339,1.6.565,1.6,1.007v.023c0,.465-.431.747-1.144.747a3.635,3.635,0,0,1-2.366-.962l-1.03,1.233a5.039,5.039,0,0,0,3.362,1.268c1.71,0,2.909-.883,2.909-2.457v-.022C845.484,721.794,844.578,721.217,842.971,720.8Z" transform="translate(-799.418 -717.481)" fill="navy"/>
      <path id="Path_4600" data-name="Path 4600" d="M868.321,717.642l-3.4,7.981H866.7l.724-1.777h3.35l.725,1.777h1.823l-3.4-7.981Zm-.271,4.664,1.052-2.569,1.053,2.569Z" transform="translate(-814.62 -717.563)" fill="navy"/>
      <path id="Path_4601" data-name="Path 4601" d="M892.64,722.319c0,1.257-.646,1.9-1.709,1.9s-1.709-.668-1.709-1.959V717.78h-1.744v4.528c0,2.333,1.3,3.521,3.43,3.521s3.476-1.177,3.476-3.577V717.78H892.64Z" transform="translate(-827.955 -717.644)" fill="navy"/>
      <path id="Path_4602" data-name="Path 4602" d="M907.344,719.387h2.411V725.7H911.5v-6.317h2.412V717.78h-6.566Z" transform="translate(-839.701 -717.644)" fill="navy"/>
      <path id="Path_4603" data-name="Path 4603" d="M931.639,720.916h-3.215V717.78H926.68V725.7h1.744v-3.181h3.215V725.7h1.744V717.78h-1.744Z" transform="translate(-851.134 -717.644)" fill="navy"/>
      <path id="Path_4604" data-name="Path 4604" d="M951.1,717.448a4.1,4.1,0,0,0-4.223,4.1v.023a4.213,4.213,0,0,0,8.422-.023v-.022A4.06,4.06,0,0,0,951.1,717.448Zm2.377,4.121a2.37,2.37,0,0,1-2.377,2.468,2.408,2.408,0,0,1-2.4-2.49v-.022a2.371,2.371,0,0,1,2.378-2.468,2.408,2.408,0,0,1,2.4,2.491Z" transform="translate(-863.078 -717.448)" fill="navy"/>
      <path id="Path_4605" data-name="Path 4605" d="M977.9,720.418V720.4a2.493,2.493,0,0,0-.678-1.812,3.16,3.16,0,0,0-2.31-.8H971.29V725.7h1.744v-2.535h1.37l1.7,2.535h2.038l-1.936-2.83A2.461,2.461,0,0,0,977.9,720.418Zm-1.765.091c0,.668-.487,1.12-1.336,1.12h-1.766v-2.275h1.732c.849,0,1.37.385,1.37,1.132Z" transform="translate(-877.51 -717.644)" fill="navy"/>
      <rect id="Rectangle_318" data-name="Rectangle 318" width="1.744" height="7.925" transform="translate(102.046 0.136)" fill="navy"/>
      <path id="Path_4606" data-name="Path 4606" d="M999.246,719.387h2.411V725.7h1.743v-6.317h2.412V717.78h-6.566Z" transform="translate(-894.04 -717.644)" fill="navy"/>
      <path id="Path_4607" data-name="Path 4607" d="M1020.519,720.961l-1.891-3.181h-2.038l3.045,4.8V725.7h1.744v-3.158l3.045-4.766h-1.981Z" transform="translate(-904.295 -717.644)" fill="navy"/>
      <path id="Path_4608" data-name="Path 4608" d="M1050.1,717.448a4.1,4.1,0,0,0-4.223,4.1v.023a4.213,4.213,0,0,0,8.422-.023v-.022A4.06,4.06,0,0,0,1050.1,717.448Zm2.377,4.121a2.37,2.37,0,0,1-2.377,2.468,2.408,2.408,0,0,1-2.4-2.49v-.022a2.371,2.371,0,0,1,2.378-2.468,2.407,2.407,0,0,1,2.4,2.491Z" transform="translate(-921.61 -717.448)" fill="navy"/>
      <path id="Path_4609" data-name="Path 4609" d="M1070.284,725.7h1.744v-3.068h3.781v-1.585h-3.781v-1.687h4.291V717.78h-6.034Z" transform="translate(-936.042 -717.644)" fill="navy"/>
      <rect id="Rectangle_319" data-name="Rectangle 319" width="1.744" height="7.925" transform="translate(145.147 0.136)" fill="navy"/>
      <path id="Path_4610" data-name="Path 4610" d="M1111.4,722.66l-3.713-4.879h-1.608V725.7h1.721v-5.038l3.837,5.038h1.483V717.78h-1.72Z" transform="translate(-957.207 -717.644)" fill="navy"/>
      <path id="Path_4611" data-name="Path 4611" d="M1131.059,717.78h-3.091V725.7h3.091a3.967,3.967,0,0,0,4.211-3.962v-.023A3.949,3.949,0,0,0,1131.059,717.78Zm2.389,3.985a2.258,2.258,0,0,1-2.389,2.366h-1.347v-4.777h1.347a2.276,2.276,0,0,1,2.389,2.389Z" transform="translate(-970.149 -717.644)" fill="navy"/>
      <rect id="Rectangle_320" data-name="Rectangle 320" width="1.744" height="7.925" transform="translate(166.755 0.136)" fill="navy"/>
      <path id="Path_4612" data-name="Path 4612" d="M1162.288,717.642h-1.607l-3.4,7.981h1.778l.725-1.777h3.35l.724,1.777h1.823Zm-1.879,4.664,1.052-2.569,1.053,2.569Z" transform="translate(-987.482 -717.563)" fill="navy"/>
    </g>
    <g id="Group_1278" data-name="Group 1278" transform="translate(762.305 471.694)">
      <path id="Path_4613" data-name="Path 4613" d="M826.4,663.066h-1.364a8.95,8.95,0,0,0-.435-1.347,5.8,5.8,0,0,0-.74-1.307,3.87,3.87,0,0,0-1.109-.994,2.979,2.979,0,0,0-1.561-.394,3.233,3.233,0,0,0-1.117.181,2.553,2.553,0,0,0-.846.5,2.163,2.163,0,0,0-.542.764,2.451,2.451,0,0,0-.189.97,3.141,3.141,0,0,0,.23,1.191c.063.154.134.3.207.435H797.9v1.381h1.5v3.977H796.88v-2.991a2.553,2.553,0,0,0-.649-1.874,2.484,2.484,0,0,0-1.849-.657,2.721,2.721,0,0,0-.978.172,2.4,2.4,0,0,0-.781.477,2.124,2.124,0,0,0-.509.715,2.212,2.212,0,0,0-.181.9,2.605,2.605,0,0,0,.132.846,2.862,2.862,0,0,0,.337.69,2.349,2.349,0,0,0,.468.518,2.493,2.493,0,0,0,.51.329l.9-1.036a1.685,1.685,0,0,1-.509-.485,1.3,1.3,0,0,1-.23-.781.961.961,0,0,1,.23-.707.823.823,0,0,1,.608-.23q.739,0,.739,1v3.106h-.115a1.208,1.208,0,0,0-.78.288,1.007,1.007,0,0,0-.354.83,1.647,1.647,0,0,0,.164.732,1.856,1.856,0,0,0,.444.584,2.1,2.1,0,0,0,.641.386,2.035,2.035,0,0,0,.739.14,1.628,1.628,0,0,0,.674-.115,1.038,1.038,0,0,0,.345-.23v-1.216h2.514v3.7h1.775v-9.072h2.465v9.072h1.775v-9.072h4.552a4.089,4.089,0,0,1,.443.813,3.026,3.026,0,0,1,.214,1.191,1.733,1.733,0,0,1-.361,1.192,1.164,1.164,0,0,1-.9.4,1.02,1.02,0,0,1-.838-.46l-.312-.394a1.392,1.392,0,0,0-.83.23.729.729,0,0,0-.32.625,1.316,1.316,0,0,0,.107.493,3.467,3.467,0,0,0,.387.658l3.057,4.6,1.578-.953-2.58-3.385h.164a2.67,2.67,0,0,0,.978-.189,2.52,2.52,0,0,0,.855-.551,2.759,2.759,0,0,0,.6-.9,3.065,3.065,0,0,0,.23-1.225,3.418,3.418,0,0,0-.23-1.323,3.907,3.907,0,0,0-.443-.83h7.56v2.022h-2.547a3.312,3.312,0,0,0-2.26.739,2.789,2.789,0,0,0-.846,2.219,5.843,5.843,0,0,0,.468,2.326,11.171,11.171,0,0,0,1.126,2.029l1.561-.69a11.458,11.458,0,0,1-.986-1.808,4.431,4.431,0,0,1-.362-1.742,1.69,1.69,0,0,1,.4-1.183,1.664,1.664,0,0,1,1.29-.444h2.153v5.6h1.775v-9.072h2.465v9.072h1.775v-9.072h3.665a2.947,2.947,0,0,1,.4.6,1.585,1.585,0,0,1,.172.732,1.176,1.176,0,0,1-.51,1.068,3.232,3.232,0,0,1-1.61.361l-.395.016a4.758,4.758,0,0,0,.354,1.923,3.725,3.725,0,0,0,.928,1.315,3.656,3.656,0,0,0,1.307.748,4.765,4.765,0,0,0,1.487.238,4.035,4.035,0,0,0,1.356-.189,2.847,2.847,0,0,0,.748-.37v2.629h1.775v-9.072h1.4v-1.381H826.4Zm-3.911,0h-1.821a3.52,3.52,0,0,1-.283-.591,2.6,2.6,0,0,1-.148-.887,1.144,1.144,0,0,1,.28-.83,1.027,1.027,0,0,1,.772-.287,1.285,1.285,0,0,1,.781.247,2.486,2.486,0,0,1,.591.625,4.33,4.33,0,0,1,.435.838q.181.461.312.887Zm8.891,2.926a2.107,2.107,0,0,0-.181-.888,2.714,2.714,0,0,0-.411-.657h2.449v4.783a1.972,1.972,0,0,1-.756.534,3.057,3.057,0,0,1-1.266.238,2.526,2.526,0,0,1-1.635-.484,1.732,1.732,0,0,1-.683-1.159,3.034,3.034,0,0,0,1.783-.674A2.1,2.1,0,0,0,831.376,665.992Z" transform="translate(-791.933 -658.842)" fill="navy"/>
      <path id="Path_4614" data-name="Path 4614" d="M924.318,662.8H922.8l-.98-1.857a5.18,5.18,0,0,0-1.413-1.726,3.362,3.362,0,0,0-2.1-.641,4.34,4.34,0,0,0-.929.1,2.756,2.756,0,0,0-.748.263l.575,1.578a3.878,3.878,0,0,1,.567-.173,2.862,2.862,0,0,1,.649-.074,2.122,2.122,0,0,1,1.323.394,4.779,4.779,0,0,1,1.043,1.2l.618.937h-9.9v1.381h3.041a3.008,3.008,0,0,1,.353.83,4.06,4.06,0,0,1,.14,1.093,1.743,1.743,0,0,1-.321,1.159.965.965,0,0,1-.748.37q-.346,0-.51-.46l-.2-.46a1.1,1.1,0,0,0-.888.1.763.763,0,0,0-.361.69,2.175,2.175,0,0,0,.041.411q.041.214.074.345a6.216,6.216,0,0,0,.92,2.128,5.8,5.8,0,0,0,3.3,2.334,7.9,7.9,0,0,0,2.071.271,7.194,7.194,0,0,0,1.9-.206,5.184,5.184,0,0,0,1.159-.452v.92h1.775v-9.072h9.762v1.791a2.514,2.514,0,0,0-.887-.115,2.561,2.561,0,0,0-1.044.213,2.146,2.146,0,0,0-.78.559,3.158,3.158,0,0,0-2.2-.805,3.548,3.548,0,0,0-1.134.181,2.838,2.838,0,0,0-.97.551,2.648,2.648,0,0,0-.682.936,3.247,3.247,0,0,0-.255,1.34,4.184,4.184,0,0,0,.287,1.561,5.056,5.056,0,0,0,.756,1.306,5.947,5.947,0,0,0,1.085,1.044,8.071,8.071,0,0,0,1.29.789l1.1-1.315a10.012,10.012,0,0,1-.986-.567,4.394,4.394,0,0,1-.871-.739,3.822,3.822,0,0,1-.616-.921,2.6,2.6,0,0,1-.238-1.126,1.541,1.541,0,0,1,.444-1.224,1.621,1.621,0,0,1,1.1-.386,1.777,1.777,0,0,1,1.233.428,4.683,4.683,0,0,0-.222.92,8.55,8.55,0,0,0-.091,1.315h1.759a5.055,5.055,0,0,1,.378-2.03,1.079,1.079,0,0,1,1.019-.633,1.59,1.59,0,0,1,.3.025,1.8,1.8,0,0,1,.222.057v5.917h1.776v-9.072h1.4V662.8H924.318Zm-2.843,6a1.447,1.447,0,0,1-.888.246,1.53,1.53,0,0,1-.912-.288,1.138,1.138,0,0,1-.4-.994,1.157,1.157,0,0,1,.386-.945,1.406,1.406,0,0,1,.928-.321,1.774,1.774,0,0,1,.888.214Zm0-3.287a1.6,1.6,0,0,0-.509-.172,3.621,3.621,0,0,0-.658-.058,3.114,3.114,0,0,0-1.019.164,2.437,2.437,0,0,0-.83.477,2.162,2.162,0,0,0-.551.764,2.593,2.593,0,0,0-.2,1.043,2.525,2.525,0,0,0,.222,1.093,2.286,2.286,0,0,0,.591.781,2.638,2.638,0,0,0,.838.477,2.931,2.931,0,0,0,.978.164,2.448,2.448,0,0,0,.7-.082,1.947,1.947,0,0,0,.436-.181v.855a3.157,3.157,0,0,1-1.142.51,6.79,6.79,0,0,1-1.849.23,6.028,6.028,0,0,1-1.454-.173,5.068,5.068,0,0,1-1.282-.5,4,4,0,0,1-1.019-.814,3.594,3.594,0,0,1-.682-1.126,1.006,1.006,0,0,0,.246.033,2.661,2.661,0,0,0,1.043-.2,2.268,2.268,0,0,0,.805-.567,2.552,2.552,0,0,0,.517-.888,3.445,3.445,0,0,0,.181-1.142,3.573,3.573,0,0,0-.181-1.167,3.949,3.949,0,0,0-.394-.855h5.21Z" transform="translate(-862.628 -658.581)" fill="navy"/>
      <path id="Path_4615" data-name="Path 4615" d="M1009.832,663.557a.51.51,0,0,1-.238-.168,10.355,10.355,0,0,0-3.073-2.485,5.2,5.2,0,0,0-.53-.244,8.929,8.929,0,0,0-2.3-.671,7.208,7.208,0,0,0-4.022.334,3.517,3.517,0,0,0-.828.485,2.174,2.174,0,0,0-.832,2.355c.028.116.07.228.123.394H984.351v.018h-.022v1.376h.022v.013h.777v.272c0,.948-.007,1.9,0,2.844a2.5,2.5,0,0,0,1.788,2.6c.166.055.34.083.557.135l-2.761,2.224,1.478,1.248,3.587-3.773.027.009v3.5h1.8v-.08h0v-8.983h2.416v9.063h1.8v-9.063h2.42v9.063h1.8v-9.063h1.364v-1.01c0-.049,0-.1,0-.148a.5.5,0,0,0,0-.077v-.172h-1.466c-.079-.027-.169-.093-.179-.147a1.378,1.378,0,0,1,.437-1.458,2.532,2.532,0,0,1,.736-.411,5.456,5.456,0,0,1,2.97-.049,8.227,8.227,0,0,1,2.595,1.09c.152.1.3.212.448.327h.033a9.779,9.779,0,0,1,1.294,1.136.523.523,0,0,1,.157.4c0,1.793-.019,3.586.009,5.379a.778.778,0,0,1-.464.8c-.042.022-.083.046-.126.066a4.974,4.974,0,0,1-2.423.419,1.849,1.849,0,0,1-1.145-.389.8.8,0,0,1,.136-1.355,1.409,1.409,0,0,1,.564-.15c.528-.025,1.058-.023,1.587-.022.15,0,.214-.043.211-.2-.009-.324-.008-.648,0-.972,0-.152-.047-.2-.2-.205-.386,0-.774-.011-1.158-.046a1.8,1.8,0,0,1-1.746-2.029.923.923,0,0,1,.6-.86.868.868,0,0,1,.934.134.922.922,0,0,1,.236,1,4.554,4.554,0,0,1-.26.592c.338.143.682.278,1.016.434a.3.3,0,0,0,.406-.1,2.068,2.068,0,0,0,.035-2.578,2.527,2.527,0,0,0-1.772-.933,2.689,2.689,0,0,0-2.367.766,2.485,2.485,0,0,0,.758,3.893c.086.045.168.1.276.157-.166.076-.3.125-.422.195a1.633,1.633,0,0,0-.949,1.349,2.306,2.306,0,0,0,1.513,2.425,5.778,5.778,0,0,0,3.512.213,12.443,12.443,0,0,0,1.245-.405v1.926h.011v.08h1.8v-9.063h6.555v1.8c0,.05-.014.105-.022.182-.162-.1-.285-.2-.419-.271a3.113,3.113,0,0,0-1.907-.318,2.771,2.771,0,0,0-1.239.436,2.7,2.7,0,0,0-1.214,2.38,2.99,2.99,0,0,0,3.075,3.132,2.468,2.468,0,0,0,1.342-.319c.115-.07.224-.151.385-.262v2.305h1.8v-5.084a1.561,1.561,0,0,1,.208-.487,1.521,1.521,0,0,1,1.623-.627,1.22,1.22,0,0,1,1.147,1.277,1.368,1.368,0,0,1-.964,1.548,5.472,5.472,0,0,1-.862.087c-.068.008-.178.056-.186.1-.065.356-.108.717-.161,1.076-.022.146.047.182.183.2a4.029,4.029,0,0,0,1.665-.082,2.643,2.643,0,0,0,1.906-1.615,3.16,3.16,0,0,0,.182-1.648,2.67,2.67,0,0,0-.84-1.673,3.184,3.184,0,0,0-3.8-.156.49.49,0,0,1-.1.056v-2.039h8.885a.237.237,0,0,1,.116.076,3.1,3.1,0,0,1,.515,2.542,1.214,1.214,0,0,1-1.211.941,1.066,1.066,0,0,1-.9-.576.5.5,0,0,0-.62-.228.826.826,0,0,0-.69,1.086,2.29,2.29,0,0,0,.266.578c1.031,1.57,2.073,3.134,3.107,4.7.08.121.146.137.265.062.333-.211.673-.412,1.009-.619.125-.076.246-.157.385-.247l-2.539-3.331.451-.063a2.563,2.563,0,0,0,1.686-.905,2.991,2.991,0,0,0,.585-2.611,9.828,9.828,0,0,0-.493-1.408h2.464c0,.105,0,.2,0,.285.016,1.279-.006,2.56.063,3.836a2.211,2.211,0,0,0,1.364,2.005,3.707,3.707,0,0,0,2.2.256,2.557,2.557,0,0,0,2.289-2.637c.009-1.14.007-2.585,0-3.744h1.962v9.063h1.8v-9.063h1.364v-1.408Zm-20.025,5.2a.5.5,0,0,1-.147.183,2.073,2.073,0,0,1-1.888.418,1.026,1.026,0,0,1-.839-1c-.036-1.124-.011-2.249-.011-3.4h2.886Zm27.013.584a3.232,3.232,0,0,1-.14.726,1.389,1.389,0,0,1-1.492.8,1.572,1.572,0,0,1,.334-3.126,2.019,2.019,0,0,1,1.105.421.523.523,0,0,1,.192.246Zm19.242-.845a3.537,3.537,0,0,1-.143.857.77.77,0,0,1-.546.546c-.76.233-1.614.067-1.668-1.064-.057-1.194-.028-2.655-.024-3.873h2.385c0,.1,0,.186,0,.217C1036.068,666.287,1036.078,667.393,1036.061,668.5Z" transform="translate(-905.69 -659.334)" fill="navy"/>
    </g>
  </g>
</svg>
