<?xml version="1.0" encoding="utf-8"?>
<!-- Generator: Adobe Illustrator 27.4.0, SVG Export Plug-In . SVG Version: 6.00 Build 0)  -->
<svg version="1.1" id="Layer_1" xmlns="http://www.w3.org/2000/svg" xmlns:xlink="http://www.w3.org/1999/xlink" x="0px" y="0px"
	 viewBox="0 0 40 40" style="enable-background:new 0 0 40 40;" xml:space="preserve">
<style type="text/css">
	.st0{fill:#FFFFFF;}
</style>
<path id="Shooting" class="st0" d="M0.9,35.9c0.6-1.2,1.7-1.9,2.5-3c2.2-2.7,3.3-6.1,3.2-9.6c0-1.1,0.3-2.2,0.6-3.3
	c0.7-2.6,1.4-5.3,2.1-7.9c0.3-1.4,1.5-2.4,3-2.5c0.7,0,1.3,0.2,1.9,0.6l0.3,0.1l0,0c0-0.5,0.2-0.9,0.5-1.3c-1,0-2-0.5-2.7-1.2
	c-0.6-0.6-0.9-1.4-1-2.3c-0.1-2.1,1.4-3.9,3.5-4s3.9,1.4,4,3.5c0.1,1.3-0.5,2.5-1.5,3.2c0.1,0,0.3,0,0.4,0h19.8c0.1,0,0.3,0,0.4,0
	c0.6,0,1,0.5,1,1.1v0.1c0,0.6-0.5,1-1,1h-0.1h-2.5c-0.2,0-0.5,0-0.7,0c-0.2,0.1-0.1,0.4-0.2,0.6c-0.2,0.6-0.7,1.1-1.4,1.3
	c-0.2,0-0.3,0.1-0.4,0.3c-1.7,1.7-3.4,3.4-5.1,5c-1.4,1.4-3.6,1.7-5.3,0.8l-1.4-0.7c-0.1-0.1-0.3-0.1-0.4,0
	c-1.8,1.6-4.5,1.5-6.2-0.1l-0.1-0.1c-0.2,0.8-0.5,1.7-0.7,2.5s-0.4,1.6-0.6,2.4c-0.1,0.2,0,0.4,0.2,0.5c1.9,1.5,3.7,3.2,5.2,5.1
	c1.8,2.2,3.3,4.6,4.5,7.2c0.5,1,0.1,2.2-0.9,2.7l0,0c-1,0.5-2.2,0.1-2.7-0.9c0,0,0,0,0-0.1c-0.9-2-2.1-3.9-3.5-5.7s-3.1-3.5-4.9-4.9
	h-0.1c-0.2,1.4-0.6,2.8-1.1,4.2c-0.9,2.2-2.1,4.2-3.7,5.9c-0.4,0.4-0.8,0.8-1.2,1.2c-0.7,0.9-2,1-2.9,0.2c-0.3-0.3-0.6-0.7-0.7-1.1
	c0,0,0,0-0.1,0L0.9,35.9z M15.5,12.3c0,0.8,0,0.8,0.6,1.4c0.3,0.3,0.7,0.7,1,1c0.2,0.3,0.6,0.3,0.9,0.2c0.1-0.1,0.1-0.1,0.2-0.2
	c0.4-0.5,0.9-1,1.3-1.5c0.1-0.1,0.3-0.3,0.3-0.5H17C16.5,12.6,16,12.5,15.5,12.3L15.5,12.3z M26.8,12.6h-1.7c-0.1,0-0.2,0-0.3,0.1
	c-0.3,0.6-0.6,1.1-1,1.5c-0.3,0.4-0.3,0.4,0.1,0.5c0.4,0.2,0.6,0.3,0.9,0.1C25.5,14.1,26.2,13.3,26.8,12.6L26.8,12.6z"/>
</svg>
