<?xml version="1.0" encoding="utf-8"?>
<!-- Generator: Adobe Illustrator 27.4.0, SVG Export Plug-In . SVG Version: 6.00 Build 0)  -->
<svg version="1.1" id="Layer_1" xmlns="http://www.w3.org/2000/svg" xmlns:xlink="http://www.w3.org/1999/xlink" x="0px" y="0px"
	 viewBox="0 0 40 40" style="enable-background:new 0 0 40 40;" xml:space="preserve">
<style type="text/css">
	.st0{fill:#FFFFFF;}
</style>
<g id="Weightlifting" transform="translate(-0.015 -0.008)">
	<path id="Path_11593" class="st0" d="M13.6,15.2c0,2.5-0.6,4.9-1.9,7c-0.4,0.7-0.9,1.2-1.5,1.7C8.5,25.3,6,25.4,4.3,24
		c-1.6-1.3-2.6-3-3.1-5c-1.1-3.6-0.6-7.4,1.4-10.6c0.5-0.8,1.1-1.4,1.8-2c1.7-1.3,4-1.2,5.6,0.1c1.8,1.6,3,3.7,3.3,6.1
		C13.5,13.5,13.6,14.3,13.6,15.2L13.6,15.2z M3.4,15.1c-0.2,0.8,0.4,1.6,1.2,1.8c0.1,0,0.3,0,0.4,0c0.4,0,0.7,0,1.1,0
		c0.5-0.2,1,0.1,1.1,0.6c0,0,0,0,0,0.1c0.1,0.2,0.1,0.5,0.5,0.3c0.3-0.1,0.2-0.4,0-0.6s-0.2-0.6,0-0.8l0,0C8.2,15.9,8.3,15,8,14.3
		c-0.3-0.8-0.9-0.8-1.6-0.8c-0.9,0-1-0.2-0.9-1.1c0-0.3-0.1-0.6-0.4-0.8c-0.4-0.2-0.8-0.1-1,0.3c-0.1,0.2-0.1,0.4,0,0.6
		C4.2,12.8,4.4,13,4.7,13C4.9,13,5,13.1,5,13.3l0,0c0,0.1-0.2,0.1-0.3,0.1C4,13.6,3.4,14.3,3.4,15.1z"/>
	<path id="Path_11594" class="st0" d="M32.7,17.7l-1.5-1.2c-0.2-0.1-0.3-0.3-0.3-0.5c0-0.2,0.3-0.2,0.5-0.3c0.5,0,1-0.1,1.5-0.1
		c0.4,0,1.2,0.8,1.3,1.3s-0.2,0.7-0.5,1c-0.7,0.6-1.3,1.2-2,1.6c-0.6,0.4-0.5,0.8-0.3,1.3c1.7,4.3,3.3,8.6,5,12.8
		c0.1,0.2,0.1,0.4,0.2,0.7c-0.9,0-1.8-0.1-2.8-0.3c-2-0.2-4-0.5-6-0.7c-0.3,0-0.5-0.1-0.5-0.5c-0.3-2.2-0.6-4.5-0.9-6.7
		c-0.4-2.9-0.8-5.7-1.1-8.6c0-0.3-0.3-0.8,0.1-0.9c0.5-0.1,1.2-0.3,1.4,0.1c0.9,1.1,2.3,1.5,3.6,1C31.2,17.9,32,17.8,32.7,17.7z"/>
	<path id="Path_11595" class="st0" d="M31,17.3c-1.1,0-2.2,0.6-3.2-0.3c0.1-0.2,0.2-0.2,0.3-0.2c0.9,0,1.1-0.2,1-1.1
		C29,15,28.5,14.4,27.9,14c-0.2-0.1-0.4-0.1-0.6,0s0.1,0.3,0.2,0.4c0.3,0.2,0.5,0.5,0.7,0.7c0.4,0.6,0.2,1-0.5,1
		c-1.6,0-3.3,0-4.9,0.1c-0.4,0-0.6-0.1-0.5-0.5c0-0.5,0-0.9,0-1.4c0-0.3,0.1-0.5,0.4-0.5c0.6,0,1.2,0,1.8,0c0.3,0.1,0.6-0.1,0.7-0.4
		l0,0c0.2-0.6,0.5-1.1,0.9-1.6c0.2-0.3,0.4-0.4,0.7-0.1c0.4,0.3,0.7,0.6,1.1,0.9c0.2,0.1,0.3,0.3,0.5,0.3s0.4,0.1,0.5-0.1
		c0.1-0.2-0.1-0.2-0.2-0.3c-0.5-0.4-0.9-0.8-1.5-1.2c2.3-0.4,4.6,0.1,6.5,1.4c0.3,0.2,0.5,0.5,0.6,0.9c0,0.4,0.2,0.5,0.6,0.5
		c1.3,0,2.6,0.1,3.9,0.1c0.4,0,0.5,0.1,0.5,0.5c0,1.4,0,1.4-1.4,1.5c-1,0-2,0-3,0.1c-0.3,0-0.7-0.1-0.8-0.4
		c-0.3-0.5-0.9-0.7-1.5-0.6c-0.4,0-0.8,0.1-1.2,0.1c-0.4,0-0.8,0.1-1,0.6c-0.1,0.4,0,0.8,0.3,1.1C30.8,17.2,30.9,17.3,31,17.3
		L31,17.3z"/>
	<path id="Path_11596" class="st0" d="M10.3,24.6c5.2-5.1,5.2-13.5,0.1-18.6c-0.1-0.1-0.1-0.1-0.2-0.1c0.8,0,1.6,0.2,2.3,0.6
		c1.5,1,2.6,2.4,3.1,4.1c1.4,3.6,1.1,7.7-0.8,11.1c-0.7,1.5-2.1,2.6-3.7,2.9C10.7,24.7,10.5,24.7,10.3,24.6z"/>
	<path id="Path_11597" class="st0" d="M13.2,24.3c5-5,4.9-13.2-0.1-18.2L13,6c1.1,0,2.1,0.3,2.9,1.1c1.4,1.3,2.4,2.9,2.7,4.8
		c0.9,3.2,0.4,6.7-1.2,9.6c-0.7,1.4-2.1,2.5-3.6,2.9C13.6,24.4,13.4,24.5,13.2,24.3z"/>
	<path id="Path_11598" class="st0" d="M16.1,24.1C21,19.2,20.9,11.2,16,6.4l0,0c1.2,0,2.3,0.4,3.1,1.3c1.4,1.4,2.3,3.2,2.6,5.1
		c0.6,2.9,0.2,5.9-1.3,8.5c-0.7,1.5-2,2.6-3.6,2.9C16.5,24.2,16.3,24.2,16.1,24.1z"/>
	<path id="Path_11599" class="st0" d="M5.7,14.1h0.9c0.4,0,0.8,0,1,0.4s0.2,1,0,1.4c-0.1,0.2-0.2,0.3-0.4,0C7,15.8,7,15.3,6.6,15.5
		s0.1,0.5,0,0.8H5.7C6,15.6,6,14.8,5.7,14.1z"/>
	<path id="Path_11600" class="st0" d="M5.4,15.3c-0.1,0.4-0.1,1.1-0.7,1.1s-0.6-0.6-0.6-1.1s0-1.1,0.6-1.1S5.3,14.8,5.4,15.3z"/>
</g>
</svg>
